<?xml version="1.0" encoding="utf-8"?>
<!-- Generator: Adobe Illustrator 26.1.0, SVG Export Plug-In . SVG Version: 6.00 Build 0)  -->
<svg version="1.1" id="Layer_1" xmlns="http://www.w3.org/2000/svg" xmlns:xlink="http://www.w3.org/1999/xlink" x="0px" y="0px"
	 viewBox="0 0 1600 1600" style="enable-background:new 0 0 1600 1600;" xml:space="preserve">
<style type="text/css">
	.st0{fill:#FED403;}
	.st1{clip-path:url(#SVGID_00000176019650536886277570000008756664806299166143_);}
	.st2{clip-path:url(#SVGID_00000109708033309801550000000011594790400802220960_);}
	.st3{clip-path:url(#SVGID_00000163785775215187160430000000727898524281621667_);}
	.st4{fill:#231F20;}
</style>
<g transform="matrix(.98482 0 0 .98482 0 -.0051636)">
	<circle class="st0" cx="879.96" cy="575.35" r="172.97"/>
	<g>
		<defs>
			<path id="SVGID_1_" d="M1033.17,850.59H591.91c-29.35-34.95-50.56-77.02-60.69-123.21h262.92
				c25.38,14.37,54.68,22.58,85.95,22.58c31.27,0,60.61-8.21,85.98-22.58h127.78C1083.73,773.57,1062.51,815.64,1033.17,850.59
				 M1093.94,604.11h-41.56c1.57-9.37,2.37-18.93,2.37-28.73c0-34.83-10.17-67.22-27.74-94.48h6.52v-0.04
				C1062.79,515.89,1083.92,557.97,1093.94,604.11 M531.14,604.11c10.01-46.14,31.14-88.22,60.41-123.25c0,0.04,0,0.04-0.04,0.04
				h141.75c-17.58,27.26-27.74,59.65-27.74,94.48c0,9.81,0.8,19.37,2.36,28.73H531.14"/>
		</defs>
		<use xlink:href="#SVGID_1_"  style="overflow:visible;fill:#FED403;"/>
		<clipPath id="SVGID_00000065033141444093815290000018245756190241448615_">
			<use xlink:href="#SVGID_1_"  style="overflow:visible;"/>
		</clipPath>
		
			<g transform="matrix(.23588 0 0 -.23588 0 202.36)" style="clip-path:url(#SVGID_00000065033141444093815290000018245756190241448615_);">
			<g>
				<defs>
					
						<rect id="SVGID_00000057126084504718703230000017798143251145808564_" x="3144.06" y="-2167.94" width="565.18" height="373.42"/>
				</defs>
				<use xlink:href="#SVGID_00000057126084504718703230000017798143251145808564_"  style="overflow:visible;fill:#FED403;"/>
				<clipPath id="SVGID_00000129198737485542805710000008434566306766069378_">
					<use xlink:href="#SVGID_00000057126084504718703230000017798143251145808564_"  style="overflow:visible;"/>
				</clipPath>
				<g style="clip-path:url(#SVGID_00000129198737485542805710000008434566306766069378_);">
					<path class="st0" d="M2223.9-1963.59c0-674.24,546.5-1220.7,1220.91-1220.7c674.1,0,1220.74,546.46,1220.74,1220.7
						c0,674.28-546.64,1220.74-1220.74,1220.74C2770.4-742.85,2223.9-1289.31,2223.9-1963.59"/>
				</g>
			</g>
		</g>
	</g>
	<g>
		<defs>
			<path id="SVGID_00000132089483856498990270000016863643898465752495_" d="M524.57,665.53c0,159.04,128.91,287.94,287.99,287.94
				c159.01,0,287.95-128.9,287.95-287.94c0-159.05-128.94-287.95-287.95-287.95C653.48,377.58,524.57,506.48,524.57,665.53"/>
		</defs>
		<clipPath id="SVGID_00000160875272371526614740000011330237854509809814_">
			<use xlink:href="#SVGID_00000132089483856498990270000016863643898465752495_"  style="overflow:visible;"/>
		</clipPath>
		<path style="clip-path:url(#SVGID_00000160875272371526614740000011330237854509809814_);" d="M1100.47,604.13h-575.9v123.25
			h575.9V604.13 M1100.47,850.59h-575.9V953.4h575.9V850.59 M1100.47,480.9h-575.9V377.62h575.9V480.9"/>
	</g>
</g>
<g transform="matrix(.23588 0 0 -.23588 0 202.36)">
	<path class="st4" d="M5152.96-3679.3c-1.02,0-2.17-1.02-2.17-2.17v-19.9c0-1.16,1.16-2.17,2.17-2.17h36.94v-125.83
		c0-1.17,0.97-2.19,2.17-2.19h20.7c1.16,0,2.36,1.02,2.36,2.19v125.83h36.75c1.16,0,2.19,1.02,2.19,2.17v19.9
		c0,1.15-1.04,2.17-2.19,2.17"/>
	<path class="st4" d="M3624.16-3490.44c0-40.78,31.92-72.52,72.69-72.52c40.61,0,72.7,31.74,72.7,72.52
		c0,40.43-32.09,72.52-72.7,72.52C3656.09-3417.91,3624.16-3449.84,3624.16-3490.44"/>
	<path class="st4" d="M4004.88-3728.63l-4.5-2.64l-9.37,26.06c-3.16,8.86-11.5,14.71-20.71,14.71h-46.8
		c-12.03,0-21.91-9.83-21.91-22.08v-599.82c0-12.03,9.88-22.08,21.91-22.08h83.9c12.18,0,22.08,10.04,22.08,22.08v485.54l2.31,0.99
		c34.61,18.05,69.53,29.08,137.55,29.08c81.73,0,98.13-30.59,98.13-80.22v-435.39c0-12.03,9.88-21.91,21.89-21.91h84.08
		c12.02,0,21.86,9.88,21.86,21.91v431.88c0,132.22-78.05,202.05-225.97,202.05C4114.53-3678.48,4059.21-3695.34,4004.88-3728.63"/>
	<path class="st4" d="M3759.54-3712.58c0,12.25-9.85,22.08-21.91,22.08h-81.73c-12.01,0-21.86-9.83-21.86-22.08v-599.82
		c0-12.03,9.85-21.91,21.86-21.91h81.56c12.23,0,22.08,9.88,22.08,21.91"/>
	<path class="st4" d="M3480.45-3412.57c0,12.2-9.88,22.08-22.08,22.08h-81.21c-12.37,0-22.24-9.88-22.24-22.08v-899.84
		c0-12.03,9.88-21.91,22.08-21.91h81.38c12.2,0,22.08,9.88,22.08,21.91"/>
	<path class="st4" d="M2222.91-3955.74c6.2,82.58,27.9,158.95,144.05,158.95c99.78,0,119.17-53.65,121.53-159.11l0.17-4.66h-266.1
		L2222.91-3955.74z M2093.05-4012.56c0-82.58,0-333.95,273.91-333.95c82.08,0,136.23,5.01,206.93,27.73
		c8.34,2.52,13.03,11.38,13.03,19.91v67.5c0,7.54-3.68,14.39-9.88,18.4c-6.17,4.2-13.35,3.34-20.71,1.84
		c-61.36-12.87-110.31-17.03-189.38-17.03c-113.97,0-136.35,72.35-143.54,150.4l-0.52,4.88h372.03c12.23,0,22.08,9.83,22.08,21.86
		v38.46c0,161.6-19.21,333.9-250.05,333.9C2093.05-3678.48,2093.05-3930.04,2093.05-4012.56"/>
	<path class="st4" d="M2845.5-3955.74c6.17,82.58,27.91,158.95,144.24,158.95c99.61,0,119-53.65,121.17-159.11l0.17-4.66h-265.91
		L2845.5-3955.74z M2715.65-4012.56c0-82.58,0-333.95,274.08-333.95c82.06,0,136.06,5.01,206.91,27.73
		c8.18,2.52,13.05,11.38,13.05,19.91v67.5c0,7.54-3.84,14.39-10.04,18.4c-6.17,4.2-13.52,3.34-20.54,1.84
		c-61.52-12.87-110.31-17.03-189.38-17.03c-114.15,0-136.53,72.35-143.72,150.4l-0.52,4.88h372.21c12.02,0,21.91,9.83,21.91,21.86
		v38.46c0,161.6-19.39,333.9-249.88,333.9C2715.65-3678.48,2715.65-3930.04,2715.65-4012.56"/>
	<path class="st4" d="M4635.85-3955.74c6.17,82.58,27.89,158.95,144.07,158.95c99.78,0,119.15-53.65,121.34-159.11l0.17-4.66
		h-265.91L4635.85-3955.74z M4506.11-4012.56c0-82.58,0-333.95,273.8-333.95c82.06,0,136.01,5.01,207.08,27.73
		c8.01,2.52,12.84,11.38,12.84,19.91v67.5c0,7.54-3.68,14.39-9.85,18.4c-6.2,4.2-13.52,3.34-20.71,1.84
		c-61.52-12.87-110.17-17.03-189.36-17.03c-114.15,0-136.41,72.35-143.6,150.4l-0.64,4.88h372.19c12.03,0,21.91,9.83,21.91,21.86
		v38.46c0,161.6-19.25,333.9-249.87,333.9C4505.81-3678.48,4506.11-3930.04,4506.11-4012.56"/>
	<path class="st4" d="M1687.27-3907.26c129.69,0,175.64-39.44,175.64-150.44c0-74.36-21.23-150.44-178-150.44h-188.68v301.06h191.03
		L1687.27-3907.26z M1677.56-3513.66c136.54,0,155.27-64.87,155.27-134.75c0-89.08-47.61-132.5-145.55-132.5h-191.03v267.25H1677.56
		z M1387.26-3387.3c-13.05,0-23.58-10.53-23.58-23.58v-899.84c0-13.05,10.53-23.75,23.58-23.75h292.95
		c209.44,0,324.74,98.44,324.74,276.78c0,97.14-46.77,180.01-125.15,221.64c0,0-2.01,0.99-3.85,2.19c1.67,0.98,3.51,2.31,3.51,2.31
		c60.67,44.1,95.42,110.81,95.42,183.16c0,97.48-39.28,261.1-303.2,261.1"/>
	<path class="st4" d="M5388.59-3679.3c-0.98,0-1.67-0.68-2.01-1.32c0,0-37.74-87.93-41.41-96.62c-3.68,8.69-41.3,96.62-41.3,96.62
		c-0.33,0.64-1.15,1.32-2,1.32h-24.91c-1.32,0-2.35-1.02-2.35-2.17v-147.91c0-1.17,0.87-2.19,2.35-2.19h20.24
		c0.3,0,1.15,0.17,1.5,0.68c0.34,0.33,0.64,0.82,0.64,1.67c0,0-0.64,85.74-0.99,103.79c7.02-16.04,37.1-85.08,37.1-85.08
		c0.17-0.82,1.02-1.34,2.01-1.34h15.71c0.85,0,1.66,0.52,1.84,1.34c0,0,30.07,69.04,36.78,85.08c0-18.05-0.68-103.79-0.68-103.79
		c0-0.86,0.17-1.34,0.52-1.67c0.47-0.52,0.99-0.68,1.67-0.68h20.19c1.2,0,2.35,1.02,2.35,2.19v147.91c0,1.15-0.98,2.17-2.35,2.17"/>
</g>
</svg>
