<?xml version="1.0" encoding="UTF-8" standalone="no"?>
<!-- Created with Inkscape (http://www.inkscape.org/) -->

<svg
   width="120"
   height="120"
   viewBox="0 0 31.749999 31.75"
   version="1.1"
   id="svg382"
   xml:space="preserve"
   inkscape:version="1.2.1 (9c6d41e410, 2022-07-14)"
   sodipodi:docname="logo.svg"
   xmlns:inkscape="http://www.inkscape.org/namespaces/inkscape"
   xmlns:sodipodi="http://sodipodi.sourceforge.net/DTD/sodipodi-0.dtd"
   xmlns="http://www.w3.org/2000/svg"
   xmlns:svg="http://www.w3.org/2000/svg"><sodipodi:namedview
     id="namedview384"
     pagecolor="#ffffff"
     bordercolor="#000000"
     borderopacity="0.25"
     inkscape:showpageshadow="2"
     inkscape:pageopacity="0.0"
     inkscape:pagecheckerboard="true"
     inkscape:deskcolor="#d1d1d1"
     inkscape:document-units="mm"
     showgrid="false"
     inkscape:lockguides="false"
     inkscape:zoom="6.7277216"
     inkscape:cx="45.483451"
     inkscape:cy="72.387061"
     inkscape:window-width="2256"
     inkscape:window-height="1410"
     inkscape:window-x="-11"
     inkscape:window-y="-11"
     inkscape:window-maximized="1"
     inkscape:current-layer="layer1" /><defs
     id="defs379" /><g
     inkscape:label="Layer 1"
     inkscape:groupmode="layer"
     id="layer1"><g
       id="g1517"
       transform="matrix(1.0212948,0,0,1.0212948,-0.23532586,-0.08177952)"><path
         id="path1411"
         style="fill:#9dd199;fill-opacity:1;stroke-width:0.00910304"
         d="M 18.982422,0.70507812 C 18.406946,2.5058086 20.093878,3.940974 20.393239,5.6294924 17.820579,3.7829376 13.971877,3.7560304 11.332408,5.5754543 11.659319,4.3761408 12.446132,3.0412941 12.708083,1.707296 13.288688,-0.37954317 10.069453,0.46880393 10.089724,2.0539429 8.6230654,4.0078098 7.2821043,6.0717371 6.0753425,8.195857 c -0.7753368,1.4540778 0.053157,3.146018 1.3053056,4.017724 0.3912689,0.419526 2.6222209,1.601087 0.8785513,1.243454 -1.4036036,-0.130648 -3.8456743,-1.268398 -4.4374043,-0.349993 -0.59173,0.918405 0.2517117,0.916428 -0.9145849,1.370133 -1.1662966,0.453705 0.098458,2.865346 0.1507571,4.164251 0.2984982,1.539545 0.810042,3.097096 0.7910701,4.657788 -0.5939104,1.3342 -1.4991538,3.064217 -0.4733006,4.423626 0.9878276,0.425226 1.6498611,0.982249 1.3995166,2.213783 -0.3312297,1.035515 0.2323541,1.236446 0.907981,1.231346 0.5826688,-0.0044 16.0786886,-0.0012 20.3317946,-2.5e-4 0.678535,1.53e-4 0.620423,-0.04377 0.795618,-0.169349 0.175194,-0.125577 0.107309,-0.343373 0.06404,-0.595708 -0.205792,-1.200243 0.216268,-2.297198 1.459949,-2.710296 0.922884,-1.279691 0.09255,-2.934982 -0.445705,-4.194662 -0.175954,-1.413999 0.39068,-2.911506 0.584665,-4.345004 0.06029,-1.472039 1.380017,-3.248378 0.111908,-4.479624 -0.70999,-0.282617 -0.916432,-0.262494 -0.787728,-1.070104 C 26.75337,12.07848 24.54068,13.586382 23.017565,13.49236 21.779508,13.6547 23.986671,12.603678 24.292098,12.188431 25.536719,11.340543 26.334545,9.7083514 25.624662,8.2692237 24.951813,6.7295139 23.831883,5.4402512 22.978146,4.003085 21.860771,2.7393375 21.261779,0.80254231 19.53095,0.25590629 c -0.620521,-0.4581412 -0.384723,0.08208 -0.548528,0.44917183 z m 4.478516,8.74609338 c -0.08592,0.7237035 -1.982547,1.5623455 -0.632229,0.6868375 0.252066,-0.1809088 0.420506,-0.4609788 0.632229,-0.6868375 z"
         sodipodi:nodetypes="cccccccczzccccsszscccccccccccccc" /><path
         style="fill:#6d28d9;fill-opacity:1;stroke-width:0.00910304"
         d="m 5.8481656,30.062618 c 0.00351,-0.02537 0.0063,-0.145196 0.0063,-0.266266 -3.9e-5,-0.298076 -0.00782,-0.360924 -0.1154733,-0.932562 C 5.7062083,28.68971 5.6774855,28.481732 5.6249331,28.037807 5.5576649,27.469615 5.5461079,27.398651 5.5126732,27.348589 5.4730123,27.289199 5.4529487,27.285034 5.2381706,27.291848 4.6802438,27.309515 4.2817914,27.205796 4.1244608,27.001872 4.014787,26.859711 3.9774,26.675029 3.9774,26.275428 c 0,-0.254545 0.015336,-0.377778 0.07843,-0.630123 0.1270046,-0.507976 0.4718114,-1.35964 0.7322261,-1.808572 C 4.9492416,23.558862 4.9964837,23.421854 4.9967806,23.231381 4.99694,23.125275 4.9856431,23.04578 4.924936,22.726158 4.9044896,22.618523 4.8425768,22.245751 4.7873464,21.897789 4.6182443,20.832398 4.5490044,20.4443 4.4495413,20.004355 4.429733,19.916743 4.2726164,19.187586 4.1003944,18.38402 3.928171,17.580447 3.7669388,16.83286 3.7420972,16.722713 3.6238983,16.198602 3.579761,15.916897 3.5627466,15.57801 l -0.0063,-0.125168 h 0.966744 0.9667429 l -0.00608,-0.02961 C 5.471308,15.362304 5.4157174,15.206844 5.3764369,15.122787 5.3540775,15.074917 5.2835414,14.942557 5.2196949,14.828619 5.1558497,14.714683 5.0883546,14.588333 5.069709,14.547844 4.9987823,14.393836 4.9572709,14.23971 4.9458998,14.088151 l -0.00645,-0.0857 0.1675486,0.0059 c 0.4810721,0.01745 0.8163136,0.07177 1.8078717,0.293179 0.7879561,0.175921 1.1091537,0.227472 1.5593934,0.250278 0.107643,0.0052 0.1981119,0.01268 0.2010419,0.01613 0.00294,0.0037 0.016451,0.0412 0.030043,0.08396 0.025152,0.07913 0.060436,0.15376 0.1762899,0.372867 0.071982,0.136135 0.1149741,0.253518 0.1312957,0.358496 l 0.010776,0.06935 h 0.6219588 0.6219572 l -0.0023,-1.23942 -0.0023,-1.239419 -0.05006,-0.01701 C 10.060233,12.904846 9.8651794,12.782739 9.5528461,12.543435 9.4477572,12.462924 9.3146681,12.364803 9.257091,12.325397 9.1995136,12.285954 9.1114429,12.222937 9.0613755,12.185267 8.9773642,12.12207 8.9151343,12.0696 8.5735442,11.774032 8.3934558,11.61811 8.2900478,11.539874 8.0874581,11.406187 7.9353736,11.305826 7.8829148,11.264964 7.7688513,11.158006 7.3972967,10.809588 7.1264495,10.4712 6.9866427,10.180748 6.917204,10.036489 6.8804753,9.9292969 6.8523882,9.7889378 6.8258649,9.6563947 6.8237757,9.3919527 6.8481363,9.2488753 6.8926499,8.987249 7.0041086,8.6702592 7.16353,8.3518915 7.1975821,8.28386 9.2733352,5.0060966 9.4893918,4.679151 9.6099247,4.4967651 9.8381287,4.1800613 10.332269,3.5094122 c 0.530462,-0.719942 0.66123,-0.9013674 0.813608,-1.1287731 0.148911,-0.2222373 0.196274,-0.3132655 0.232431,-0.4467398 0.0155,-0.057182 0.04994,-0.1511053 0.07654,-0.2086825 0.02661,-0.057548 0.05102,-0.1131823 0.05426,-0.1235702 0.0046,-0.014663 0.01165,-0.018034 0.03165,-0.015101 0.01417,0.00219 0.04155,-5.352e-4 0.06082,-0.00586 0.01928,-0.00513 0.03677,-0.00799 0.03887,-0.00587 0.0021,0.00219 -0.04234,0.1996359 -0.09873,0.4389763 l -0.102535,0.4351677 -0.12735,0.273092 c -0.07004,0.1502033 -0.149697,0.3242986 -0.17701,0.3868824 -0.113281,0.2595518 -1.4951923,3.6520086 -1.5166186,3.7231408 -0.012817,0.042589 -0.03598,0.1285766 -0.051477,0.1911614 -0.015486,0.062606 -0.066733,0.2305356 -0.1138592,0.3732254 -0.047131,0.1426889 -0.098677,0.3106406 -0.1145458,0.3732244 -0.026882,0.1060131 -0.029156,0.1272949 -0.033216,0.3114704 -0.00745,0.3377142 0.029265,0.535605 0.1318675,0.710661 0.039565,0.067515 0.1353395,0.1695416 0.2074255,0.2209831 0.1539987,0.1098908 0.6915826,0.3331175 0.8576656,0.356137 l 0.03868,0.00517 2.8e-5,-0.06268 c 1.29e-4,-0.2564036 0.07289,-0.6326274 0.190818,-0.9866308 0.226137,-0.6788449 0.610285,-1.3098115 1.067406,-1.7532305 0.403784,-0.3916693 1.04427,-0.7336499 1.769539,-0.9448251 1.634359,-0.475858 3.496351,-0.4358535 4.838011,0.1039491 0.213123,0.085748 0.395194,0.1771305 0.811584,0.4073588 0.424852,0.2349043 0.45054,0.2528067 0.64867,0.4520256 0.149134,0.149946 0.254417,0.2824531 0.409133,0.5149175 0.391595,0.5883735 0.620561,1.0618634 0.74312,1.536747 0.05371,0.2080955 0.09031,0.4647662 0.09031,0.6332533 v 0.099166 l 0.06145,-0.00654 c 0.147405,-0.015108 0.368636,-0.080797 0.531736,-0.1578863 0.344714,-0.162938 0.571608,-0.3972268 0.636841,-0.6576075 0.01704,-0.068036 0.01437,-0.363068 -0.005,-0.5443614 C 22.300837,7.6921462 22.228142,7.3664263 22.115595,7.0273555 22.030618,6.7713447 21.95406,6.577735 21.739242,6.0755804 21.507972,5.534968 21.510284,5.5409056 21.207816,4.7106335 21.062812,4.3126001 20.927664,3.9480254 20.907487,3.9004619 20.887311,3.8528898 20.714277,3.5026639 20.522973,3.1221516 20.174311,2.4286669 20.06001,2.1853972 19.971211,1.9478603 19.92387,1.8212109 19.871283,1.6337517 19.871283,1.5916427 c 0,-0.02192 1.62e-4,-0.02192 0.02959,-0.0066 0.0882,0.045378 0.169346,0.1406732 0.332459,0.3903208 0.150319,0.2300668 0.178797,0.2715966 0.234103,0.3413651 0.08018,0.1011449 0.144496,0.1980158 0.259891,0.391428 0.153995,0.2581067 0.215425,0.3454995 0.364737,0.5188758 0.369524,0.4290724 0.649483,0.808683 1.184932,1.606684 0.322419,0.4805212 1.920867,2.9488689 2.045432,3.1585925 0.260582,0.4387273 0.423006,0.8474861 0.49299,1.2406947 0.02645,0.1486347 0.03353,0.4216612 0.01385,0.5345583 -0.05197,0.2982141 -0.199725,0.5783371 -0.482536,0.9148561 -0.09943,0.118314 -0.453765,0.474546 -0.561143,0.564152 -0.05257,0.04383 -0.161241,0.122617 -0.24149,0.175005 -0.08025,0.05235 -0.47522,0.346621 -0.877714,0.653875 -0.475557,0.363021 -0.775827,0.585889 -0.857528,0.636472 -0.06914,0.04281 -0.190928,0.118056 -0.270627,0.167197 l -0.144906,0.08934 -0.0056,0.12912 c -0.003,0.07104 -0.01772,0.583821 -0.03247,1.139564 -0.01475,0.555743 -0.02902,1.05652 -0.03173,1.112843 l -0.005,0.102411 h 0.654126 0.654122 l 0.01045,-0.06335 c 0.01312,-0.07946 0.05036,-0.198236 0.08278,-0.264059 0.01366,-0.02771 0.06605,-0.130286 0.116411,-0.22792 0.05037,-0.09762 0.102598,-0.21297 0.11607,-0.256311 l 0.02448,-0.0788 0.10615,-0.0052 c 0.3799,-0.01942 0.557599,-0.04794 1.303202,-0.209468 0.222466,-0.04816 0.410597,-0.08245 1.051402,-0.19144 0.560915,-0.09541 1.00708,-0.15054 1.218913,-0.150628 h 0.05372 l -0.0057,0.09359 c -0.0061,0.09897 -0.0359,0.232619 -0.07561,0.338638 -0.0308,0.0822 -0.12924,0.278385 -0.212487,0.42345 -0.120753,0.210427 -0.224176,0.442847 -0.250129,0.562113 l -0.0064,0.02961 h 0.708484 c 0.712665,0 0.905556,0.0065 1.008629,0.03284 0.253406,0.06532 0.28328,0.244121 0.145074,0.868306 -0.0368,0.166236 -0.09095,0.384309 -0.300576,1.210704 -0.161043,0.634866 -0.303016,1.360959 -0.685268,3.504671 -0.312804,1.754242 -0.343484,1.941429 -0.365399,2.229396 -0.01045,0.137096 -9.53e-4,0.245527 0.02815,0.323426 0.01008,0.02669 0.04254,0.08275 0.07238,0.124656 0.257581,0.361752 0.349793,0.543595 0.532766,1.050611 0.27671,0.766764 0.34478,1.068043 0.368748,1.632115 0.01028,0.239846 0.0049,0.317312 -0.02782,0.404682 -0.101944,0.272469 -0.437514,0.444475 -0.93579,0.47967 -0.148113,0.01045 -0.338468,0.0015 -0.462464,-0.02251 -0.0395,-0.0076 -0.0762,-0.01377 -0.08156,-0.01377 -0.02264,0 -0.07703,0.340405 -0.14004,0.876582 -0.02518,0.214261 -0.05397,0.442956 -0.06397,0.50821 -0.01456,0.09497 -0.150712,0.639176 -0.259354,1.036616 -0.02566,0.09382 -0.019,0.128613 0.03727,0.194717 0.03245,0.03812 0.05446,0.09411 0.06619,0.168355 l 0.0074,0.04655 H 15.827264 5.8417399 Z M 16.050662,29.90905 c 0.244057,-0.05285 0.432867,-0.156808 0.620628,-0.341754 0.142632,-0.14049 0.293857,-0.339723 0.369796,-0.487191 0.03424,-0.06649 0.05978,-0.09784 0.181876,-0.223022 0.07812,-0.0801 0.532182,-0.588059 1.009036,-1.12878 0.635558,-0.720683 0.900613,-1.014713 0.992902,-1.101467 0.151321,-0.142234 0.270042,-0.267395 0.522645,-0.551007 0.137844,-0.154757 0.555896,-0.579958 1.516752,-1.542687 0.843472,-0.845117 1.351434,-1.360781 1.395044,-1.416204 0.08846,-0.112412 0.111676,-0.134508 0.807664,-0.768604 0.322931,-0.294213 0.61582,-0.566169 0.650867,-0.604355 0.09284,-0.101144 0.206607,-0.234818 0.314546,-0.369589 0.15362,-0.191814 0.25322,-0.278517 0.554795,-0.482926 0.127898,-0.0867 0.14413,-0.101622 0.523243,-0.481452 0.698647,-0.699943 0.861472,-0.853694 1.128956,-1.066005 0.299177,-0.237465 0.431822,-0.396333 0.518574,-0.621078 0.04662,-0.120784 0.08604,-0.292423 0.163538,-0.712112 0.09319,-0.504647 0.141923,-0.737242 0.210617,-1.005166 0.141262,-0.550972 0.18733,-0.739392 0.217241,-0.888532 0.03122,-0.155657 0.05976,-0.355051 0.05976,-0.417401 v -0.0313 l -0.521149,0.0065 c -0.286631,0.0037 -0.629702,0.01039 -0.762379,0.01503 -0.580956,0.02045 -0.994573,0.0206 -1.442831,3.73e-4 -0.235313,-0.01063 -0.573263,-0.02177 -0.750999,-0.02486 l -0.323159,-0.0059 -0.0679,0.0854 c -0.09246,0.116299 -0.372007,0.393928 -0.506865,0.503395 -0.06078,0.04933 -0.159843,0.124985 -0.220142,0.168111 -0.101985,0.07295 -0.121346,0.09208 -0.277403,0.274127 -0.348785,0.406888 -0.626955,0.691431 -0.830229,0.849251 -0.04506,0.03496 -0.151566,0.109415 -0.23668,0.165408 -0.179371,0.117992 -0.259911,0.180554 -0.378902,0.294307 -0.08348,0.0798 -0.126073,0.128359 -0.367836,0.419272 -0.115531,0.139024 -0.398104,0.436257 -0.555124,0.583931 -0.04525,0.04259 -0.155901,0.138716 -0.245891,0.213682 -0.224798,0.187269 -0.221485,0.184051 -0.93301,0.905715 -0.347861,0.352823 -0.680649,0.683962 -0.739528,0.735873 -0.05888,0.0519 -0.155975,0.146244 -0.21577,0.209642 -0.106302,0.112706 -0.271167,0.305004 -0.279652,0.326183 -0.0023,0.0059 0.02125,0.05506 0.05245,0.109238 0.152425,0.264947 0.289916,0.455493 0.491515,0.681176 0.17594,0.196967 0.253014,0.295194 0.380728,0.485227 0.05955,0.0886 0.146116,0.212296 0.192383,0.274881 0.113637,0.153708 0.117615,0.163465 0.11786,0.289022 l 2.04e-4,0.102411 -0.08875,-1.03e-4 c -0.04882,-9.4e-5 -0.180921,-0.01253 -0.293571,-0.02771 -0.188921,-0.02537 -0.23697,-0.02815 -0.619008,-0.03592 -0.227803,-0.0045 -0.582139,-0.01532 -0.787412,-0.02368 -0.495205,-0.02023 -0.822691,-0.02045 -0.960429,-5.35e-4 -0.239854,0.03474 -0.389791,0.104445 -0.529585,0.246194 -0.05423,0.05499 -0.180392,0.226659 -0.180392,0.245455 0,0.0029 0.467593,0.0059 1.039096,0.0059 h 1.0391 l -0.0055,0.0751 c -0.0079,0.107383 -0.03298,0.170584 -0.13595,0.342164 -0.103595,0.172614 -0.12733,0.207069 -0.229925,0.333733 -0.04055,0.05007 -0.378378,0.504764 -0.750729,1.010438 -0.656914,0.89213 -0.770292,1.039519 -0.886791,1.152812 -0.05859,0.05696 -0.13032,0.09891 -0.16894,0.09877 -0.04617,-2.13e-4 -0.1175,-0.04355 -0.189898,-0.115441 -0.110151,-0.109399 -0.358291,-0.404631 -0.441448,-0.525225 -0.328121,-0.475865 -0.612058,-0.84305 -0.651907,-0.84305 -0.01929,0 -0.166265,0.119751 -0.268126,0.218447 -0.132313,0.128219 -0.258443,0.272309 -0.533883,0.609935 -0.116411,0.142688 -0.257858,0.312685 -0.31433,0.37777 -0.104414,0.120344 -0.350487,0.366854 -0.563325,0.56432 -0.14689,0.136283 -0.229015,0.234407 -0.346724,0.414258 -0.111526,0.170407 -0.152286,0.220529 -0.3186,0.391779 -0.122724,0.126363 -0.148573,0.16046 -0.572407,0.754983 -0.244135,0.34245 -0.458377,0.651574 -0.476095,0.686931 -0.0589,0.11753 -0.100625,0.181844 -0.171504,0.264354 -0.135851,0.158181 -0.212066,0.262926 -0.226656,0.311566 l -0.006,0.02002 2.123746,0.0045 c 2.01279,0.0045 2.136349,0.0052 2.364975,0.02251 0.326293,0.02455 0.68086,0.02148 0.812801,-0.0073 z m -6.489624,-0.0059 c 0.054477,-0.0075 0.1290809,-0.02316 0.1657816,-0.03474 l 0.066723,-0.02119 0.2422234,-0.235485 c 0.133225,-0.129515 0.269975,-0.270298 0.303892,-0.312855 0.03391,-0.04258 0.204649,-0.224928 0.379407,-0.405269 0.174757,-0.18034 0.360703,-0.376964 0.413211,-0.436945 0.176708,-0.20185 0.398196,-0.436315 1.092083,-1.156053 0.67266,-0.697721 1.01809,-1.066629 1.261828,-1.347587 0.460273,-0.530569 0.725477,-0.794086 0.873592,-0.868063 0.02233,-0.01113 0.04059,-0.02214 0.04059,-0.02441 0,-0.0091 -0.171358,-0.24896 -0.217347,-0.304088 -0.02714,-0.03255 -0.09724,-0.108329 -0.155749,-0.168407 -0.114786,-0.117858 -0.138229,-0.148934 -0.204044,-0.270452 l -0.04295,-0.07929 -0.347652,0.31861 c -0.19121,0.17523 -0.373936,0.34981 -0.406062,0.387952 -0.06664,0.07911 -0.509253,0.538972 -0.564094,0.586065 -0.102349,0.08789 -0.714216,0.666778 -0.889196,0.841269 -0.213793,0.213198 -0.330017,0.338367 -0.490588,0.528333 -0.05487,0.06487 -0.387751,0.436051 -0.739749,0.824753 -0.3519987,0.3887 -0.6813808,0.757373 -0.7319621,0.819267 -0.1555199,0.190312 -0.2535059,0.300188 -0.3439183,0.385638 -0.1724823,0.163018 -0.2184406,0.213183 -0.4086015,0.446043 -0.15004,0.183735 -0.2025464,0.255006 -0.2347108,0.318609 -0.028371,0.05608 -0.058773,0.09953 -0.096418,0.13777 l -0.054982,0.05586 0.089725,0.0052 c 0.092288,0.0059 0.4553661,0.02273 0.5767379,0.02719 0.1214347,0.0045 0.3206551,-0.0045 0.4222102,-0.01796 z m 6.527958,-3.897551 c 0.125167,-0.163508 0.302963,-0.395745 0.395106,-0.516075 0.09214,-0.12033 0.295213,-0.372397 0.451271,-0.560141 0.330775,-0.397954 0.471085,-0.573053 0.570779,-0.712327 0.07648,-0.106841 0.138342,-0.207457 0.148302,-0.241216 l 0.006,-0.02045 h -1.867528 -1.86752 l 0.04746,0.08875 c 0.128689,0.240705 0.174808,0.30136 0.338243,0.444878 0.171778,0.150848 0.236623,0.220683 0.364493,0.392549 0.0648,0.08709 0.163052,0.212305 0.218342,0.278254 0.05529,0.06591 0.180615,0.226437 0.278499,0.356657 0.325679,0.433243 0.470356,0.60632 0.602358,0.720594 0.04249,0.0368 0.07937,0.06664 0.08193,0.06634 0.0025,-3.23e-4 0.107064,-0.134303 0.23223,-0.29782 z m 11.105667,2.22e-4 c -0.0023,-0.01379 -0.0084,-0.05579 -0.01371,-0.09331 -0.0053,-0.03753 -0.03035,-0.148151 -0.05573,-0.245785 -0.02539,-0.09762 -0.05085,-0.19594 -0.0566,-0.218469 l -0.01045,-0.04098 -0.07055,-0.0029 -0.07054,-0.0029 v 0.05835 c 0,0.0876 0.02339,0.205868 0.06785,0.342942 0.02192,0.06759 0.0445,0.141325 0.05017,0.163853 0.0056,0.02251 0.01204,0.04612 0.01414,0.05235 0.0026,0.0078 0.0265,0.01136 0.07671,0.01136 h 0.07289 z M 4.6939663,25.457398 c 0.00806,-0.03255 0.033561,-0.09604 0.056669,-0.141098 0.05625,-0.109664 0.2520604,-0.417248 0.3296092,-0.517754 l 0.062349,-0.0808 v -0.13995 -0.139948 H 5.0060479 4.8695027 v 0.0999 c 0,0.09977 -3.68e-5,0.09992 -0.025035,0.112904 -0.1011449,0.05257 -0.1488348,0.133745 -0.2080908,0.354347 -0.02313,0.0861 -0.05537,0.183172 -0.071652,0.215713 l -0.02961,0.05916 0.064783,0.168406 0.064784,0.168407 0.00732,-0.05007 c 0.00403,-0.02756 0.013907,-0.0767 0.021963,-0.109238 z M 26.916876,25.182026 c -4.3e-4,-0.24371 -0.05288,-0.378086 -0.176232,-0.451828 -0.04799,-0.02867 -0.191323,-0.08298 -0.219075,-0.08298 -0.009,0 -0.01333,0.02081 -0.01624,0.07965 -0.0035,0.06965 -9.53e-4,0.08765 0.01999,0.143465 0.01319,0.03512 0.04061,0.08836 0.06095,0.118345 0.03818,0.0563 0.07874,0.13189 0.08787,0.163758 0.0028,0.01008 0.01189,0.04179 0.02003,0.07052 l 0.01481,0.05235 h 0.104044 0.104043 l -2.15e-4,-0.0933 z M 15.50185,23.736372 c 0.114771,-0.01848 0.138055,-0.03519 0.35819,-0.257667 l 0.201647,-0.203777 -0.217671,-0.0059 c -0.338546,-0.0088 -0.940002,-0.0066 -1.044411,0.0037 -0.191068,0.01906 -0.23821,0.04531 -0.3355,0.186623 -0.06163,0.08955 -0.226089,0.268226 -0.246864,0.268226 -0.0045,0 -0.008,0.0045 -0.008,0.009 0,0.01268 1.213342,0.01217 1.292632,-5.42e-4 z m 3.392465,-0.693565 c -0.0027,-0.0065 -0.02549,-0.06004 -0.05062,-0.119494 -0.05286,-0.125028 -0.09083,-0.185964 -0.18086,-0.290261 -0.114749,-0.132925 -2.040361,-2.671891 -2.17638,-2.869614 -0.07233,-0.105131 -0.159059,-0.228329 -0.19273,-0.273766 -0.133474,-0.180092 -0.47252,-0.568265 -0.49635,-0.568265 -0.01707,0 -0.05485,0.05103 -0.559563,0.755556 -1.391625,1.942544 -1.835767,2.536606 -2.157437,2.885661 -0.126061,0.136796 -0.217833,0.259978 -0.357676,0.480103 -0.0059,0.0091 0.601805,0.01144 3.084628,0.01144 2.470077,0 3.090917,-0.0022 3.086991,-0.01136 z m 1.318422,-4.162357 c 1.210286,-1.301732 2.207191,-2.378589 2.215348,-2.393009 0.06628,-0.117185 0.132401,-0.195355 0.397234,-0.469604 0.09895,-0.102484 0.208518,-0.223324 0.243468,-0.268541 l 0.06355,-0.08222 -0.633889,-0.0022 -0.633888,-0.0022 -0.419265,0.387975 c -0.230597,0.213388 -0.420866,0.392637 -0.422821,0.398319 -0.03722,0.108292 -0.04463,0.12077 -0.103397,0.174197 -0.09255,0.08414 -0.215149,0.212759 -0.603016,0.63266 -0.196549,0.212787 -0.490722,0.520013 -0.653717,0.68273 -0.934606,0.933009 -2.068878,2.171079 -2.261612,2.468569 l -0.01582,0.02441 0.08569,0.130346 c 0.04712,0.0717 0.116657,0.177657 0.154511,0.235484 0.03785,0.05784 0.100624,0.147945 0.139494,0.200265 0.07547,0.101601 0.223581,0.258812 0.238572,0.253248 0.005,-0.0022 0.999277,-1.068419 2.209564,-2.37015 z m -1.779709,-3.400036 c 0.392032,-0.0291 0.643675,-0.141415 0.834474,-0.372559 l 0.04833,-0.05857 -0.06717,-0.02595 c -0.03694,-0.01429 -0.261174,-0.123367 -0.498296,-0.242459 -0.666019,-0.334488 -1.013229,-0.486862 -1.50958,-0.662474 -0.51916,-0.183676 -1.214494,-0.345873 -1.614692,-0.376648 -0.328497,-0.02522 -0.939058,0.06188 -1.594391,0.227602 -0.885564,0.223916 -1.608808,0.52826 -1.898121,0.798734 -0.06528,0.06099 -0.136407,0.162301 -0.136407,0.194205 0,0.01547 0.10266,0.06751 0.221453,0.112149 0.105673,0.03973 0.387329,0.106819 0.406153,0.09675 0.03411,-0.01826 0.190787,-0.150928 0.331987,-0.281134 0.364135,-0.335779 0.536881,-0.460346 0.797292,-0.574928 0.348155,-0.153202 0.71047,-0.22399 1.197525,-0.233967 0.332937,-0.0066 0.480496,0.01217 0.788432,0.101352 0.25578,0.0741 0.472513,0.170914 0.605442,0.270453 0.307761,0.230469 0.562649,0.616642 0.612947,0.928661 l 0.01122,0.06958 0.165034,0.0059 c 0.09078,0.0029 0.316598,0.01106 0.501845,0.01781 0.429171,0.01561 0.642299,0.01716 0.796515,0.0059 z m -6.053414,-0.04604 c -0.04528,-0.0387 -0.164857,-0.09833 -0.326154,-0.162681 -0.19845,-0.07916 -0.260902,-0.112735 -0.320362,-0.172255 -0.05748,-0.05755 -0.08183,-0.112712 -0.08183,-0.185354 0,-0.07279 0.04455,-0.141173 0.155933,-0.239451 0.279718,-0.246803 1.096229,-0.648781 1.701086,-0.837472 1.457139,-0.454554 2.899901,-0.386596 4.387196,0.206653 0.360831,0.143928 0.756555,0.337889 1.315854,0.644945 0.331176,0.181815 0.533545,0.28167 0.571216,0.281852 0.01446,9e-5 0.01593,0.01261 0.01593,0.135645 0,0.15505 0.005,0.146626 -0.08598,0.146626 -0.137589,0 -0.212157,0.0313 -0.323656,0.135945 l -0.07738,0.07257 0.9012,-0.0022 0.901202,-0.0022 -0.002,-1.019543 C 21.10805,12.517437 21.067657,11.4714 20.954179,10.354781 20.892202,9.7451306 20.786745,9.017777 20.725817,8.7798808 20.600903,8.2923841 20.260348,7.6233557 19.863898,7.0867604 19.633774,6.7752837 19.478958,6.6252776 19.243176,6.4853157 19.106902,6.4044189 18.621428,6.1652104 18.416632,6.0780455 17.926718,5.8695319 17.372039,5.6907818 16.903695,5.5905015 16.661014,5.5385275 16.518365,5.5203465 16.312,5.5149725 c -0.182254,-0.00443 -0.200044,-0.00296 -0.297656,0.025581 -0.03072,0.00908 -0.08429,0.00877 -0.273092,-0.00221 -0.448907,-0.025074 -0.526653,-0.018623 -1.054145,0.088356 -0.69207,0.1403207 -1.278313,0.334833 -1.807462,0.5997069 -0.480659,0.240601 -0.779952,0.4674279 -1.032602,0.7825922 -0.449542,0.5607699 -0.703234,1.0527935 -0.858923,1.6658504 -0.107983,0.4252159 -0.239548,1.2218623 -0.301424,1.825162 -0.06861,0.668962 -0.09653,1.252454 -0.123285,2.576156 -0.02503,1.238393 -0.05507,2.004653 -0.09162,2.337205 l -0.0053,0.0478 0.972405,-3.73e-4 0.972405,-3.74e-4 -0.03176,-0.02712 z m 3.116498,-3.313444 c -0.769421,-0.0335 -1.546712,-0.228358 -2.365602,-0.593006 -0.09011,-0.04009 -0.221204,-0.09541 -0.291297,-0.122837 -0.165283,-0.06466 -0.234251,-0.101424 -0.309514,-0.16491 -0.141384,-0.119266 -0.176894,-0.138129 -0.260245,-0.138232 -0.04354,-8.7e-5 -0.160899,0.02669 -0.220113,0.05007 -0.01887,0.0075 -0.03861,0.01356 -0.04385,0.01356 -0.02669,0 0.04065,-0.112397 0.113463,-0.189387 0.251626,-0.266054 0.974004,-0.59816 1.858142,-0.854267 0.388995,-0.112676 0.71116,-0.1808975 0.919406,-0.1946804 0.227203,-0.015019 1.108012,-0.021261 1.370007,-0.00976 0.924812,0.040912 1.56669,0.1826584 2.248449,0.4965384 0.22082,0.101663 0.571743,0.298714 0.718586,0.403502 0.08101,0.05784 0.184764,0.158085 0.222708,0.215244 0.03563,0.05367 0.06519,0.121489 0.05667,0.130006 -0.003,0.0029 -0.08042,-0.01356 -0.171822,-0.03703 -0.09139,-0.02346 -0.173491,-0.04259 -0.182431,-0.04245 -0.01045,1.47e-4 -0.02237,0.01452 -0.03324,0.03987 -0.02105,0.04912 -0.05884,0.09277 -0.121099,0.139954 -0.07446,0.05645 -1.12217,0.494531 -1.342618,0.561418 -0.575738,0.174674 -1.130653,0.272278 -1.686507,0.296633 -0.222391,0.0098 -0.246751,0.0098 -0.479096,-3.82e-4 z m 0.666791,-0.204598 c 0.04445,-0.0076 0.20988,-0.04413 0.36759,-0.08102 0.15771,-0.03687 0.331806,-0.07626 0.386879,-0.08744 0.05507,-0.01121 0.10347,-0.02331 0.107549,-0.02697 0.02131,-0.01906 -0.08844,-0.235235 -0.180349,-0.355249 -0.242801,-0.317056 -0.733341,-0.603813 -1.189965,-0.695633 -0.493543,-0.09924 -1.187953,-0.0095 -1.632001,0.211065 -0.123518,0.06136 -0.205458,0.124237 -0.340523,0.261385 -0.09098,0.09239 -0.134059,0.130271 -0.140641,0.123687 -0.02018,-0.02016 -0.02405,-0.0065 -0.02405,0.08609 0,0.05257 0.0016,0.09558 0.0035,0.09558 0.01229,0 1.37376,0.352457 1.480349,0.383225 0.268083,0.0774 0.295377,0.08278 0.423291,0.08341 0.06508,3.22e-4 0.150383,-0.0045 0.189547,-0.01008 0.110757,-0.01649 0.308474,-0.01268 0.379393,0.0073 0.07526,0.02119 0.07351,0.02112 0.169489,0.0045 z m 1.469058,-0.332315 c 0.113707,-0.0382 0.218467,-0.08013 0.50977,-0.204174 0.254542,-0.108389 0.460306,-0.18713 0.596248,-0.228153 0.105005,-0.03167 0.143802,-0.05168 0.168904,-0.0869 0.02308,-0.03241 0.06492,-0.155761 0.05568,-0.164177 -0.0034,-0.0029 -0.03474,-0.01261 -0.06973,-0.02112 -0.205403,-0.05021 -0.397372,-0.128827 -0.646176,-0.264573 -0.334689,-0.182613 -0.488211,-0.245719 -0.75125,-0.308823 -0.382723,-0.09181 -0.851457,-0.139017 -1.588479,-0.15999 -0.819493,-0.02331 -1.161009,0.0015 -1.638547,0.117852 -0.307678,0.07512 -0.607326,0.18595 -1.026467,0.379626 -0.326855,0.151024 -0.420963,0.191322 -0.530151,0.227001 l -0.09103,0.02976 -0.0025,0.100791 c -0.0013,0.05571 10e-4,0.10078 0.0056,0.10078 0.04002,0 0.192786,0.03541 0.292788,0.06789 0.127138,0.04127 0.242936,0.06861 0.290732,0.06861 0.02498,0 0.0341,-0.0099 0.09923,-0.106958 0.130211,-0.194197 0.191333,-0.26137 0.302409,-0.332319 0.154759,-0.09886 0.488987,-0.232515 0.732252,-0.292827 0.638548,-0.158311 1.34104,-0.128437 1.913213,0.08136 0.196516,0.07206 0.485532,0.229209 0.647061,0.351841 0.147716,0.112148 0.219896,0.20833 0.357535,0.476416 0.04626,0.09011 0.0938,0.180971 0.105638,0.201886 l 0.02152,0.03805 0.07965,-0.02141 c 0.04381,-0.0118 0.118568,-0.03446 0.166131,-0.05044 z m -1.621005,3.872177 0.60314,-0.0059 -0.0047,-0.02354 c -0.01119,-0.05571 -0.06509,-0.186814 -0.107535,-0.26142 -0.233394,-0.410343 -0.704285,-0.741884 -1.209357,-0.851473 -0.08351,-0.0181 -0.120869,-0.02067 -0.295849,-0.02052 -0.368094,4.46e-4 -0.552964,0.04883 -1.046849,0.273707 -0.340222,0.154939 -0.496107,0.234349 -0.610911,0.311206 -0.171214,0.114625 -0.284265,0.21973 -0.366628,0.340867 -0.0313,0.04604 -0.07386,0.1356 -0.07386,0.155444 0,0.0088 0.05119,0.01554 0.207093,0.02697 0.747259,0.05476 1.496318,0.0689 2.90548,0.05476 z M 8.6088192,15.341638 c -0.00499,-0.131377 -0.016334,-0.166441 -0.093038,-0.287431 -0.052043,-0.0821 -0.098324,-0.18688 -0.1097742,-0.248534 l -0.00616,-0.03299 -0.092502,-0.0059 C 8.063092,14.750618 7.7736453,14.70546 7.331851,14.614527 6.3158742,14.405433 6.0984586,14.364329 5.8025409,14.325417 5.6354102,14.303424 5.4095726,14.285903 5.3451499,14.289861 l -0.047754,0.0029 0.027755,0.04098 c 0.2076942,0.306579 0.4812575,0.882299 0.5136507,1.080983 l 0.0063,0.0387 h 1.3839603 1.3839597 z m 17.2142428,0.03461 c 0.0216,-0.149352 0.06017,-0.238585 0.252017,-0.583051 0.06134,-0.11014 0.132986,-0.243278 0.159195,-0.295847 0.0262,-0.05257 0.06629,-0.12184 0.08907,-0.153935 l 0.04142,-0.05835 -0.144875,0.0059 c -0.309806,0.01239 -0.666356,0.06869 -1.401093,0.221328 -0.937185,0.194702 -1.103174,0.223301 -1.487443,0.25626 l -0.07647,0.0065 -0.01502,0.05461 c -0.02243,0.08154 -0.05725,0.151318 -0.121915,0.244245 -0.03195,0.0459 -0.06689,0.100801 -0.07764,0.12198 -0.02333,0.04597 -0.05562,0.175312 -0.05571,0.223197 l -9.1e-5,0.03416 h 1.413698 1.413698 l 0.01111,-0.07692 z M 10.270306,12.487853 c 0.003,-0.07695 0.01518,-0.191654 0.02835,-0.26868 0.03539,-0.206689 0.0422,-0.352714 0.03579,-0.766794 -0.0072,-0.464289 -0.0074,-0.461879 0.08371,-1.215256 0.0261,-0.215955 0.04972,-0.4926841 0.04972,-0.5824955 v -0.062162 l -0.07965,-0.00591 C 9.9688409,9.555294 9.5671722,9.3919822 9.3128032,9.149409 9.1386421,8.9833268 9.0562116,8.8228677 9.0052719,8.5507578 8.9853974,8.4445905 8.9828024,8.1090395 9.0008694,7.9796701 9.0198929,7.8433739 9.0548256,7.669 9.0947973,7.5108646 c 0.0685,-0.2710025 0.252885,-0.8667514 0.319642,-1.032768 0.091222,-0.2268627 0.9143797,-2.4073613 0.9106037,-2.4121418 -0.0061,-0.00781 -0.07876,0.068761 -0.129136,0.1359964 -0.02815,0.037605 -0.08944,0.1342882 -0.136214,0.214921 C 10.010741,4.5012585 9.9190313,4.6378491 9.8435827,4.738745 9.6196464,5.0382136 9.4260926,5.3349763 8.9884811,6.0498307 8.8888701,6.212548 8.7413311,6.4439937 8.6606154,6.5641476 8.0781264,7.4312874 8.0019096,7.5476806 7.796765,7.8833277 7.4242575,8.4928066 7.1930889,8.9582327 7.1177525,9.2504146 c -0.059908,0.2323547 -0.02288,0.4528906 0.1248862,0.7437388 0.2200791,0.4331856 0.6717197,0.9213146 1.2033423,1.3005816 0.1928754,0.137594 0.3040762,0.227574 0.5685163,0.460016 0.3069439,0.269807 0.501108,0.417512 0.7843237,0.596657 0.1342903,0.08495 0.449881,0.270372 0.460656,0.270665 0.003,8.9e-5 0.0079,-0.06026 0.01085,-0.134119 z m 11.39885,-0.02309 c 0.37724,-0.225485 0.587881,-0.380367 0.969719,-0.713029 0.260419,-0.226878 0.305311,-0.263269 0.532283,-0.43144 0.224312,-0.166207 0.297252,-0.224664 0.45515,-0.36481 0.341326,-0.302936 0.686203,-0.723798 0.815417,-0.9950649 0.13351,-0.2802841 0.141817,-0.5466093 0.02767,-0.8872628 C 24.404985,8.8809318 24.336437,8.7367977 24.072667,8.2390276 23.897448,7.9083511 23.852146,7.8328935 23.720177,7.6518778 23.574443,7.4519779 23.485687,7.3192735 23.354946,7.1057745 23.295137,7.008107 23.196095,6.850358 23.134865,6.7552318 23.073643,6.6601088 22.801442,6.2299848 22.529987,5.7994089 22.258534,5.3688342 22.013193,4.982773 21.984786,4.9414921 21.929813,4.8616036 21.328139,4.1165126 21.322862,4.1217913 c -0.0017,0.00147 0.250833,0.6666309 0.561224,1.4775858 0.310392,0.8109488 0.582418,1.5324597 0.604501,1.6033564 0.226539,0.7272288 0.2435,1.3281677 0.04817,1.7069865 -0.04753,0.092177 -0.08545,0.1444191 -0.158786,0.218726 -0.08751,0.088673 -0.167702,0.1402553 -0.385277,0.2478372 -0.31931,0.1578789 -0.420587,0.1896074 -0.658516,0.2063147 -0.08113,0.00591 -0.147876,0.010927 -0.148336,0.011582 -7.32e-4,0.00147 0.203743,3.0196561 0.205061,3.0265181 9.52e-4,0.0052 0.130688,-0.06774 0.278237,-0.155922 z"
         id="path515" /></g></g></svg>
