<?xml version="1.0" encoding="utf-8"?>
<!-- Generator: Adobe Illustrator 26.1.0, SVG Export Plug-In . SVG Version: 6.00 Build 0)  -->
<svg version="1.1" id="Layer_1" xmlns="http://www.w3.org/2000/svg" xmlns:xlink="http://www.w3.org/1999/xlink" x="0px" y="0px"
	 viewBox="0 0 1600 1600" style="enable-background:new 0 0 1600 1600;" xml:space="preserve">
<style type="text/css">
	.st0{fill:#DFB055;}
	.st1{fill:#636158;}
	.st2{fill:#F6F6F5;}
</style>
<path class="st0" d="M43.5,691.04c0-43.24,0.11-86.47-0.13-129.71c-0.04-6.3,1.38-8.55,8.18-8.46c29.3,0.39,58.63,0.59,87.92-0.07
	c9.78-0.22,17.05,2.8,24.09,9.06c32.72,29.11,65.64,58,98.54,86.91c15.92,13.99,31.95,27.85,48,41.69c1.66,1.43,3.06,4.51,5.7,3.18
	c2.43-1.23,1.36-4.27,1.36-6.52c0.05-42.05,0.18-84.11-0.11-126.16c-0.04-6.18,1.48-8.1,7.8-8.04c31.2,0.3,62.4,0.22,93.6,0.05
	c4.98-0.03,6.95,1.08,7.21,6.61c0.35,7.31,0.54,14.61,0.54,21.92c0.03,75.37,0.03,150.74-0.02,226.11c0,5.42-0.62,10.83-0.74,16.25
	c-0.07,3.38-1.68,4.5-4.86,4.49c-33.56-0.05-67.13,0.14-100.69-0.17c-7.99-0.07-12.34-7.39-17.85-11.87
	c-33.99-27.61-67.7-55.56-101.5-83.41c-13.6-11.21-27.15-22.5-40.78-33.68c-1.76-1.44-3.57-4.11-5.93-3.18
	c-2.65,1.06-1.23,4.15-1.23,6.32c-0.05,39.69-0.15,79.39,0.14,119.08c0.04,6.08-2.39,6.95-7.51,6.94
	c-32.37-0.02-64.74,0.12-97.11,0.44c-3.69,0.04-4.6-1.51-4.64-4.51c-0.05-3.78-0.01-7.56-0.01-11.34
	C43.5,772.32,43.5,731.68,43.5,691.04z"/>
<path class="st0" d="M43.49,905.43c-0.01-18.9,0.16-37.8-0.11-56.69c-0.08-5.9,1.95-7.66,7.81-7.61c31.19,0.26,62.39,0.3,93.58,0.01
	c6.25-0.06,8.09,1.75,8.03,8.01c-0.3,28.58-0.67,57.18,0.01,85.75c1.12,47.28,45.76,88.72,96.88,77.13
	c17.06-3.87,32.21-10.31,44.06-23.35c15-16.5,22.87-36.13,23.3-58.29c0.53-26.92,0.26-53.86,0-80.78c-0.06-6.08,1.08-8.62,8.07-8.52
	c31.19,0.43,62.39,0.35,93.58,0.09c5.62-0.05,7.68,1.76,7.58,7.19c-0.18,9.42,0.05,18.84-0.05,28.26
	c-0.38,34.23-0.61,68.47-1.3,102.7c-0.88,43.28-19.82,77.88-52.56,105.2c-17.42,14.54-37.96,22.93-59.8,29.02
	c-30.88,8.6-62.31,10.5-93.96,9.25c-34.33-1.36-67.96-7-98.79-23.38c-30.67-16.3-52.54-40.91-66.01-72.78
	c-5.71-13.51-7.81-27.98-8.81-42.61C43.21,957.84,43.65,931.63,43.49,905.43z"/>
<path class="st0" d="M198.47,836.95c14.04-5.81,28.38-9.1,43.85-8.76c39.77,0.87,66.1,33.92,65.93,65.82
	c-0.11,20.03-5.12,38.28-23.91,49.73c-17.72,10.79-42.83,11.52-57.82-0.95c-19.31-16.07-17.59-50.08,1.53-59.78
	c9.22-4.68,21.71-3.11,28.06,3.99c7.05,7.88,7.64,21.7,1.22,30.13c-1.26,1.65-3.68,3.33-1.83,5.31c1.81,1.94,4.5,0.53,6.59-0.52
	c20.35-10.24,20.16-37.9,6.97-49.94c-13.73-12.55-30.01-13.24-46.22-7.22c-16.81,6.25-26.13,19.29-27.75,37.53
	c-1.38,15.51-0.87,30.62,7.65,44.39c11.94,19.28,37.55,30.01,60,26.09c10.47-1.83,19.95-5.65,29.18-10.47
	c1.74-0.91,3.28-1.66,5.85-1.33c-1.24,8.51-7.99,12.85-13.33,18.01c-13.96,13.52-30.59,21.56-50.24,20.22
	c-30.95-2.11-62.39-23.53-67.41-60.44c-1.54-11.33-1.15-22.6-1.17-33.91c-0.06-56.93-0.11-113.86,0.03-170.79
	c0.01-3.76-2.98-9.39,1.2-10.94c3.01-1.12,6.16,4.24,8.8,7.12c18.58,20.22,31.32,43.02,30.81,71.47
	c-0.18,10.06-3.22,19.49-6.76,28.77c-0.75,1.97-2.05,3.75-1.7,6.02c-0.26,0.27-0.77,0.72-0.74,0.77
	C197.88,838.1,198.18,837.5,198.47,836.95z"/>
<path class="st0" d="M169.56,554.52c7.01-3.59,13.04-2.01,18.78-1.86c35.41,0.93,70.82,0.25,106.23,0.2
	c7.31-0.01,8.99,2.08,8.91,9.2c-0.39,32.33-0.13,64.67-0.13,97.01c0,2.5-0.2,5-0.38,9c-28.89-26.06-41.84-56.49-35.4-95.16
	C230.61,588.08,199.13,578.71,169.56,554.52z"/>
<path class="st0" d="M734.34,874.69c-59.57,0-119.14-0.01-178.7,0.03c-4.41,0-8.5,0.67-8.11-6.21c0.32-5.73,2.2-7.63,8.1-7.62
	c119.61,0.14,239.22,0.08,358.83,0.09c3.65,0,7.95-0.9,7.48,5.38c-0.37,4.95-0.11,8.6-7.47,8.56c-60.04-0.36-120.08-0.2-180.12-0.2
	C734.34,874.71,734.34,874.7,734.34,874.69z"/>
<path class="st1" d="M1020.46,601.67c8.65,12.3,16.99,24.29,25.47,36.18c2.82,3.96,6.43,6.93,11.63,7.2
	c1.93,0.1,4.11,0.19,4.13,2.77c0.02,2.68-2.19,2.64-4.11,2.65c-5.67,0.02-11.34-0.08-17.01,0.03c-3.89,0.08-5.94-2.34-7.85-5.17
	c-7.66-11.35-15.36-22.68-23.03-34.02c-1.59-2.35-3.14-4.74-5.72-6.17c-6.39-3.54-10.06-1.46-10.07,5.73
	c-0.01,8.03,0.03,16.06,0.03,24.09c0,6.06,2.26,9.99,9.02,10.15c2.14,0.05,5.41-0.44,4.92,3.29c-0.41,3.07-3.28,2.04-5.2,2.05
	c-11.1,0.08-22.21,0.05-33.31,0.05c-2.13,0-4.73,0.22-4.61-2.87c0.1-2.51,2.53-2.54,4.37-2.5c7.58,0.19,9.72-4.19,9.7-10.86
	c-0.08-21.96-0.12-43.93,0-65.89c0.04-7.01-2.22-11.5-10.05-11.34c-1.94,0.04-4.17-0.08-4.07-2.71c0.11-2.65,2.47-2.42,4.31-2.41
	c15.59,0.02,31.22-0.52,46.77,0.3c16,0.84,25.43,9.13,26.57,21.49c1.07,11.55-3.96,20.22-14.56,24.99
	C1025.48,599.73,1023.09,600.6,1020.46,601.67z M993.9,578.2c0,1.88,0,3.77,0,5.65c0,15.77,3.18,18.1,18.72,13.72
	c10.23-2.89,15.95-11.31,14.84-21.86c-1.22-11.59-7.66-17.83-19.26-18.57c-2.58-0.16-5.19,0.1-7.76-0.13
	c-4.75-0.42-6.98,1.25-6.61,6.36C994.18,568.29,993.9,573.26,993.9,578.2z"/>
<path class="st1" d="M1088.4,741.93c7.84,11.22,15.14,21.65,22.42,32.1c3.97,5.7,7.94,11.34,15.95,11.43
	c1.56,0.02,2.81,0.85,2.87,2.51c0.08,2.18-1.5,2.72-3.32,2.72c-6.38-0.01-12.76-0.02-19.14-0.09c-3.32-0.03-4.85-2.5-6.46-4.88
	c-7.8-11.54-15.62-23.08-23.46-34.59c-1.59-2.33-3.11-4.73-5.86-6c-6.57-3.04-9.52-1.28-9.53,5.81c-0.01,7.8,0.14,15.59-0.03,23.38
	c-0.15,6.72,2.08,11.01,9.56,11.09c2.03,0.02,4.71-0.14,4.5,3.05c-0.19,2.79-2.64,2.2-4.4,2.21c-11.34,0.06-22.69,0.09-34.03,0.02
	c-1.97-0.01-4.86,0.61-4.86-2.56c0-3.05,2.83-2.72,4.84-2.72c7.22,0,9.26-4.23,9.24-10.58c-0.06-22.2-0.1-44.41,0.03-66.61
	c0.04-6.84-2.41-10.89-9.77-10.87c-1.86,0-4.26,0.14-4.31-2.47c-0.06-3.22,2.73-2.68,4.71-2.68c15.36,0,30.74-0.43,46.07,0.26
	c17.56,0.79,27.33,10.52,26.96,25.49c-0.25,10.12-5.71,16.67-14.44,20.91C1093.65,739.98,1091.2,740.8,1088.4,741.93z
	 M1061.87,718.29c0,5.17,0.21,10.35-0.07,15.51c-0.22,4.09,1.39,5.53,5.31,5.11c1.86-0.2,3.76,0.01,5.64-0.04
	c14.3-0.37,22.52-7.91,22.54-20.64c0.02-13.69-7.55-20.71-22.55-20.92c-10.88-0.15-10.88-0.15-10.86,10.41
	C1061.87,711.24,1061.87,714.77,1061.87,718.29z"/>
<path class="st1" d="M1133.28,597.11c1.93,0.83,2.96,1.28,4,1.71c11.2,4.72,17,12.46,16.67,22.99
	c-0.38,11.92-5.85,20.69-17.02,25.47c-5.05,2.16-10.41,3.12-15.88,3.15c-13.93,0.07-27.86,0.09-41.79,0.01
	c-2.13-0.01-5.42,1.04-5.65-2.43c-0.24-3.61,3.22-2.85,5.28-2.93c6.39-0.23,8.7-3.85,8.71-9.66c0-22.89-0.04-45.79,0-68.68
	c0.01-5.99-2.66-9.25-8.78-9.66c-2.12-0.14-5.53,0.78-5.2-2.92c0.32-3.5,3.67-2.2,5.74-2.22c13.69-0.12,27.39-0.09,41.08-0.03
	c2.11,0.01,4.24,0.3,6.33,0.61c10.25,1.52,18.67,5.64,21.46,16.6c2.64,10.39-1.63,18.91-12.46,26.01
	C1135.18,595.52,1134.67,596,1133.28,597.11z M1102.75,620.37c0.03,0,0.06,0,0.08,0c0,4.24-0.06,8.49,0.02,12.73
	c0.08,4.41,1,8.47,5.34,10.81c8.6,4.63,22.1,0.71,26.62-7.93c3.78-7.23,4.47-15.03,1.86-22.64c-3.95-11.49-15.63-13.65-30.36-11.5
	c-7.55,1.11-1.91,9.49-3.5,14.3C1102.4,617.42,1102.75,618.96,1102.75,620.37z M1102.74,576.6c0.01,0,0.02,0,0.03,0
	c0,5.2-0.02,10.39,0.01,15.59c0.01,1.91,0,4.1,2.69,4.07c8.21-0.1,16.81,0.95,23.02-6.34c5.82-6.83,5.95-14.8,3.56-22.75
	c-2.53-8.38-12.79-12.56-25.39-9.93c-7.89,1.64-2.53,8.63-3.81,13.01C1102.27,572.2,1102.74,574.47,1102.74,576.6z"/>
<path class="st1" d="M560.08,571.15c0,21.97-0.25,41.74,0.14,61.5c0.13,6.56,3.21,11.89,10.99,12.46c1.87,0.14,4.11,0.54,3.73,3.18
	c-0.38,2.62-2.74,2.14-4.54,2.15c-9.22,0.05-18.43,0.04-27.65,0.01c-1.83-0.01-4.1,0.32-4.17-2.5c-0.06-2.23,1.74-2.59,3.42-2.72
	c7.43-0.59,10.08-5.8,10.71-12.02c2.14-20.96,1.41-41.98,0.54-62.97c-0.3-7.29-3.92-12.6-12.11-13.16c-1.67-0.12-3.6-0.19-3.62-2.44
	c-0.02-2.69,2.17-2.7,4.07-2.71c6.14-0.03,12.29,0,18.43,0.01c4.45,0.01,6.51,3.42,8.85,6.33c15.87,19.68,31.67,39.4,47.56,59.06
	c1.54,1.91,2.58,4.48,6.56,5.6c0-5.93,0.03-11.44-0.01-16.95c-0.08-11.1,0.15-22.22-0.4-33.29c-0.53-10.61-2.56-12.68-12.74-15.61
	c-1.7-0.49-3.36-0.83-3.08-3.04c0.29-2.31,2.26-2.09,3.85-2.1c9.69-0.05,19.38-0.05,29.07-0.01c1.59,0.01,3.57-0.1,3.72,2.23
	c0.15,2.19-1.52,2.76-3.26,2.9c-8.7,0.71-10.82,6.95-10.94,13.95c-0.39,23.61-0.4,47.23-0.55,70.85c-0.01,1.65,0.01,3.31,0,4.96
	c-0.01,1.66,0.14,3.6-1.64,4.34c-2.24,0.94-3.41-1-4.58-2.45c-9.93-12.32-19.84-24.67-29.75-37
	C582.23,598.69,571.76,585.67,560.08,571.15z"/>
<path class="st1" d="M674.68,711.15c0,20.6-0.2,39.24,0.09,57.88c0.13,8.13,1.73,15.87,12.38,16.55c1.81,0.12,3.2,1.18,2.8,3.28
	c-0.34,1.81-1.96,1.81-3.37,1.81c-9.92,0.01-19.84,0.01-29.76-0.06c-1.34-0.01-3.01,0.04-3.3-1.85c-0.33-2.12,1.04-3.1,2.86-3.23
	c8.54-0.6,10.85-6.56,11.52-13.61c1.92-20.02,1.13-40.09,0.51-60.12c-0.24-7.98-3.78-14.19-13.16-14.54
	c-1.53-0.06-2.81-0.68-2.78-2.49c0.04-1.77,1.36-2.53,2.83-2.51c11.86,0.18,23.5-2.6,32.54,10.58
	c13.32,19.41,29.24,37.02,44.08,55.38c1.41,1.74,2.98,3.34,5.17,5.77c1.59-5.18,0.89-9.39,0.88-13.48
	c-0.03-12.74,0.11-25.5-0.55-38.22c-0.52-10.18-2.72-12.22-12.58-14.95c-1.66-0.46-3.43-0.69-3.2-2.93
	c0.24-2.25,2.12-2.21,3.77-2.22c9.68-0.03,19.37-0.03,29.05,0c1.61,0.01,3.55-0.17,3.84,2.11c0.27,2.18-1.3,2.83-3.1,2.98
	c-8.59,0.72-10.87,6.83-11.07,13.88c-0.42,14.86-0.36,29.74-0.45,44.61c-0.06,9.92,0.01,19.83-0.04,29.75
	c-0.01,2.07,0.67,4.81-1.56,5.79c-2.78,1.23-4.09-1.57-5.51-3.34c-18.21-22.62-36.38-45.26-54.58-67.89
	C680.01,717.56,677.92,715.09,674.68,711.15z"/>
<path class="st1" d="M1405.85,650.48c-11.58,0-23.16,0.02-34.74-0.03c-2.01-0.01-4.82,0.6-4.94-2.49c-0.12-3.07,2.65-2.86,4.7-2.84
	c7.18,0.05,9.36-4.13,9.35-10.5c-0.04-22.21-0.06-44.42,0.03-66.63c0.03-6.72-2.24-11.03-9.71-10.91c-2.24,0.04-4.73-0.16-4.36-3.15
	c0.31-2.49,2.8-2.03,4.62-2.03c22.45-0.03,44.91,0.03,67.36-0.08c3.74-0.02,5.68,1.18,6.06,5.07c0.53,5.4,1.44,10.76,2.11,16.15
	c0.17,1.39,0.24,2.97-1.56,3.47c-1.73,0.48-2.7-0.69-3.24-2.04c-8.16-20.13-25.7-17.51-42.2-17.41c-3.04,0.02-4.07,1.71-4.06,4.55
	c0.05,10.4,0.01,20.79,0.04,31.19c0.01,1.59-0.12,3.13,2.05,3.92c11.16,4.07,21.95-1.4,24.74-12.83c0.43-1.78,0.68-3.31,2.92-3.05
	c1.73,0.2,2.31,1.52,2.31,3.04c0.03,9.92,0.04,19.84-0.03,29.76c-0.01,1.4-0.4,2.96-2.28,3c-2.16,0.05-2.45-1.56-2.9-3.28
	c-2.51-9.57-16.04-15.41-25.18-11.08c-2.11,1-1.62,2.67-1.63,4.19c-0.05,9.92-0.03,19.85,0.03,29.77c0.04,5.63,2.64,8.95,8.6,8.85
	c6.37-0.1,12.78,0.1,19.1-0.54c11.04-1.11,17.55-8.27,22.18-17.7c0.93-1.9,1.12-5.48,4.32-4.61c3.93,1.07,1.56,4.33,1.2,6.58
	c-3.46,21.67-3.5,21.66-25.06,21.65C1419.09,650.48,1412.47,650.48,1405.85,650.48z"/>
<path class="st1" d="M975.05,790.68c-11.58,0-23.16,0.03-34.74-0.03c-1.99-0.01-4.87,0.76-5.18-2.22c-0.4-3.77,2.89-3,5.04-3.04
	c6.34-0.12,8.84-3.67,8.84-9.52c0.02-22.91-0.03-45.83,0.02-68.74c0.01-6.38-2.92-9.67-9.4-9.74c-2.1-0.02-4.76,0.06-4.53-3.03
	c0.2-2.64,2.69-2.15,4.48-2.15c22.69-0.03,45.38-0.03,68.07,0.04c1.34,0,2.86,0.34,3.96,1.04c1.41,0.9,4.25,20.52,3.45,22.15
	c-0.78,1.6-2.02,1.89-3.45,0.97c-0.56-0.36-1.01-1.04-1.27-1.67c-8-19.72-25.19-17.52-41.51-17.44c-3.2,0.02-4.72,1.32-4.69,4.67
	c0.09,10.39,0.02,20.79,0.03,31.18c0,1.66,0.05,3.11,2.18,3.84c11.37,3.9,21.62-1.37,24.63-12.93c0.38-1.47,0.59-2.91,2.36-2.99
	c2.13-0.1,2.89,1.44,2.9,3.24c0.04,9.92,0.04,19.84-0.03,29.76c-0.01,1.47-0.63,2.86-2.45,2.84c-1.71-0.01-2.19-1.23-2.67-2.72
	c-3.42-10.53-13.98-15.38-24.76-11.7c-2.64,0.9-2.13,2.79-2.14,4.53c-0.04,9.69,0.02,19.37,0.02,29.06c0,6.45,3.11,9.57,9.63,9.33
	c3.3-0.12,6.62-0.13,9.92,0c14.3,0.56,24.59-5.27,30.48-18.57c0.82-1.85,1.04-5.43,4.45-4.23c3.31,1.16,1.3,3.98,1.02,6.13
	c-0.27,2.1-0.69,4.19-1.12,6.27c-3.81,18.08,0.79,15.42-19.42,15.67c-8.03,0.1-16.07,0.02-24.11,0.02
	C975.05,790.7,975.05,790.69,975.05,790.68z"/>
<path class="st1" d="M550.44,733.51c0-8.5-0.07-16.99,0.02-25.49c0.07-6.26-1.79-10.69-9.06-10.72c-1.88-0.01-4.15-0.02-3.97-2.77
	c0.17-2.56,2.35-2.59,4.27-2.58c11.1,0.01,22.19,0.02,33.29,0.12c1.81,0.02,4.16-0.14,4.34,2.49c0.19,2.74-2.06,2.74-3.96,2.78
	c-7.54,0.13-9.41,4.77-9.38,11.3c0.09,16.52-0.23,33.05,0.09,49.56c0.44,22.55,18.14,33.93,39.17,25.54
	c8.25-3.29,12.86-9.7,14.19-18.07c3.09-19.45,1.63-39.07,1.02-58.62c-0.18-5.75-3.88-9.5-10.17-9.71c-1.79-0.06-3.43-0.49-3.39-2.69
	c0.04-2.13,1.67-2.68,3.45-2.68c9.2,0.02,18.41,0.06,27.61,0.14c1.72,0.01,3.49,0.37,3.61,2.52c0.12,2.21-1.54,2.58-3.34,2.71
	c-8.47,0.6-10.2,6.57-10.29,13.43c-0.17,12.98-0.09,25.96-0.09,38.94c0,6.4-0.63,12.71-2.42,18.88
	c-4.08,14.12-13.83,22.39-28.45,23.68c-4.91,0.43-9.93,0.4-14.84-0.09c-20.26-2.02-31.04-13.58-31.63-33.88
	c-0.24-8.25-0.04-16.52-0.04-24.78C550.47,733.51,550.45,733.51,550.44,733.51z"/>
<path class="st1" d="M797.4,650.48c-10.39,0.01-20.79,0.08-31.18-0.05c-2.17-0.03-5.08,1.34-6.33-1.52
	c-1.08-2.48,0.93-4.42,2.22-6.37c17.38-26.14,34.79-52.28,52.12-78.46c1.24-1.87,3.96-3.79,2.82-6c-1.18-2.29-4.28-0.85-6.52-1
	c-3.06-0.19-6.18,0.26-9.2-0.1c-16.32-1.95-27.82,4.78-35.5,19c-1.05,1.94-1.7,5.96-5.21,4.3c-3.36-1.59-0.86-4.69-0.2-6.88
	c6.51-21.56,6.56-21.54,29.07-21.53c13.7,0.01,27.4-0.05,41.1,0.04c2.2,0.02,5.21-1.22,6.37,1.54c0.99,2.36-1.1,4.39-2.38,6.33
	c-17.3,26.2-34.64,52.37-51.89,78.61c-1.2,1.82-3.99,3.63-2.33,6.09c1.23,1.81,3.96,0.81,6,0.82c7.32,0.02,14.64-0.26,21.96-0.14
	c11.79,0.2,20.35-5.01,26.19-15.05c1.31-2.24,2.6-4.49,3.98-6.69c0.8-1.27,1.85-2.23,3.48-1.28c1.23,0.72,1.21,1.89,0.88,3.09
	c-1.99,7.28-3.98,14.55-5.98,21.83c-1.02,3.7-4.05,3.4-6.88,3.41C819.13,650.49,808.27,650.48,797.4,650.48z"/>
<path class="st1" d="M1143.05,775.6c0-3.3-0.02-6.61,0.01-9.91c0.01-1.84-0.4-4.06,2.2-4.51c2.51-0.44,3.13,1.42,3.59,3.4
	c0.38,1.6,0.9,3.18,1.47,4.73c4.8,13.13,17.26,20.08,31.07,17.43c6.55-1.26,11.45-4.54,13.28-11.18c1.89-6.86,0.62-13.09-4.71-18.17
	c-4.54-4.33-10.26-6.65-15.82-9.25c-6.41-2.99-12.97-5.71-18.77-9.86c-9.27-6.64-12.42-15.89-10.55-26.71
	c1.89-10.95,9.25-17.21,19.66-19.97c9.46-2.51,18.73-1.63,27.65,2.46c2.79,1.28,5.15,2.94,7.82-0.9c2.15-3.1,3.97-1.45,4.09,1.85
	c0.22,5.66,0.49,11.32,0.46,16.98c-0.01,2.31,1.41,5.82-2.48,6.3c-3.31,0.41-3.07-3.02-3.81-5.02
	c-4.83-13.04-13.14-18.58-26.48-17.41c-6.82,0.6-12.44,3.1-14.63,10.21c-2.17,7.06,0.19,13.13,6.75,17.81
	c6.01,4.28,12.88,6.91,19.52,9.98c5.6,2.58,11.03,5.42,15.66,9.54c15.96,14.2,10.86,40.2-9.36,47.07
	c-11.26,3.83-22.37,2.48-33.09-2.4c-3.21-1.46-5.99-3.63-8.75,1.3c-1.62,2.88-4.21,1.66-4.42-1.72c-0.24-4-0.06-8.02-0.06-12.03
	C1143.26,775.6,1143.15,775.6,1143.05,775.6z"/>
<path class="st1" d="M932.39,650.47c-5.43,0-10.87,0.01-16.3,0c-1.66,0-3.6,0.08-3.91-2.07c-0.37-2.56,1.63-2.86,3.59-3.32
	c8.69-2.04,9.67-3.85,6.79-12.03c-6.41-18.18-6.41-18.18-25.74-18.18c-16.19,0-16.19,0-21.58,14.73
	c-3.79,10.35-3.26,11.61,7.16,15.75c1.56,0.62,2.42,1.31,2.26,2.97c-0.18,1.87-1.61,2.15-3.06,2.15
	c-8.74,0.03-17.48,0.02-26.22-0.01c-1.44-0.01-2.9-0.27-3.2-2.07c-0.37-2.22,1.06-2.91,2.87-3.14c6.5-0.83,9.91-5.37,12.02-10.79
	c8.98-23.08,18.03-46.14,26.29-69.49c1.65-4.67,2.91-8.64,6.71-12.15c4.55-4.19,5.84-2.39,7.6,2.16
	c9.78,25.3,19.72,50.54,29.67,75.77c2.6,6.59,4.77,13.65,13.5,14.68c1.81,0.21,2.14,1.65,1.87,3.18c-0.33,1.87-1.92,1.86-3.31,1.87
	c-5.67,0.04-11.34,0.02-17.01,0.02C932.39,650.49,932.39,650.48,932.39,650.47z M897.66,568.73c-5.02,13.57-9.31,25.19-13.62,36.81
	c-0.84,2.27-1.17,4.18,2.27,4.17c8.75-0.03,17.5-0.01,27.1-0.01C908.07,595.8,903.21,583.16,897.66,568.73z"/>
<path class="st1" d="M725.21,650.47c-5.2,0.01-10.4,0.01-15.6,0c-1.63,0-3.56,0.29-3.9-1.99c-0.38-2.55,1.42-2.95,3.45-3.43
	c8.83-2.08,9.68-3.72,6.69-12.04c-6.54-18.17-6.54-18.17-25.75-18.15c-16.45,0.02-16.45,0.02-21.99,16.09
	c-3.17,9.21-2.25,11.17,6.98,14.2c1.72,0.56,3.22,1.1,2.91,3.24c-0.33,2.31-2.22,2.06-3.85,2.07c-8.27,0.03-16.54,0.05-24.81,0.02
	c-1.66,0-3.51-0.08-3.89-2.2c-0.38-2.12,1.05-3.03,2.88-3.17c6.7-0.52,9.96-5.23,12.06-10.6c9.03-23.06,18.14-46.1,26.37-69.45
	c1.66-4.7,2.84-8.7,6.68-12.21c4.4-4.02,5.76-2.77,7.61,2.03c9.84,25.53,19.91,50.98,29.93,76.44c2.51,6.39,4.63,13.18,13.17,13.99
	c1.67,0.16,2.34,1.45,2,3.1c-0.36,1.75-1.68,2.04-3.21,2.04C737.02,650.45,731.11,650.46,725.21,650.47z M691.02,568.75
	c-4.96,13.48-9.19,25.15-13.58,36.76c-1.09,2.87-1.02,4.32,2.61,4.25c7.52-0.14,15.05-0.1,22.57-0.03c2.91,0.03,3.88-1.04,2.8-3.83
	C700.83,594.11,696.27,582.31,691.02,568.75z"/>
<path class="st1" d="M1241.86,650.5c-5.43,0-10.86,0.04-16.28-0.02c-1.85-0.02-4.15,0.14-4.12-2.59c0.02-2.1,1.92-2.23,3.57-2.65
	c8.91-2.23,9.8-4.02,6.61-12.77c-6.4-17.57-6.4-17.57-25.38-17.59c-16.5-0.02-16.5-0.02-21.91,15.23
	c-3.49,9.86-2.78,11.45,7.16,15.23c1.49,0.57,2.54,1.16,2.45,2.87c-0.1,1.9-1.52,2.21-2.98,2.22c-8.73,0.04-17.46,0.03-26.2,0.01
	c-1.45,0-2.94-0.23-3.29-1.97c-0.42-2.16,0.94-2.89,2.81-3.16c7.09-1,10.32-6.22,12.59-12.08c8.76-22.63,17.6-45.23,25.8-68.07
	c1.65-4.61,2.57-8.76,6.63-12.26c4.44-3.82,5.72-2.96,7.62,1.97c9.9,25.73,20.07,51.35,30.14,77.01c2.45,6.24,4.84,12.52,12.83,13.5
	c1.8,0.22,2.28,1.46,2.08,3.04c-0.24,1.86-1.71,2.04-3.15,2.04c-5.66,0.03-11.33,0.01-16.99,0.01
	C1241.86,650.48,1241.86,650.49,1241.86,650.5z M1206.99,568.79c-5.05,13.58-9.54,25.59-13.96,37.63c-1.28,3.48,1.31,3.28,3.44,3.29
	c7.29,0.03,14.58-0.06,21.87,0.06c3.17,0.05,4.22-0.68,2.89-4.03C1216.57,594.03,1212.14,582.23,1206.99,568.79z"/>
<path class="st1" d="M1440,741.91c7.27-12.05,13.97-22.59,20.06-33.48c3.45-6.16,1.87-9.01-4.99-11.29
	c-1.38-0.46-2.84-0.62-2.87-2.45c-0.05-2.41,1.81-2.47,3.45-2.48c8.5-0.04,17-0.02,25.5,0c1.49,0,2.92,0.38,3.19,2.09
	c0.27,1.74-0.93,2.63-2.46,2.84c-8.01,1.11-11.85,7.21-15.69,13.18c-6.52,10.11-12.71,20.44-19.37,30.46
	c-3.14,4.73-4.73,9.52-4.39,15.23c0.37,6.11,0.18,12.27,0.07,18.4c-0.12,6.68,2.28,10.94,9.64,11.12c2,0.05,4.76-0.24,4.47,3.01
	c-0.25,2.75-2.72,2.1-4.48,2.11c-11.33,0.06-22.67,0.06-34,0.02c-1.76-0.01-4.21,0.64-4.57-2.04c-0.45-3.31,2.29-3.04,4.32-3.08
	c7.37-0.15,9.84-4.44,9.63-11.1c-0.01-0.24-0.02-0.47,0.01-0.71c1.93-16.33-1.48-31.09-11.71-44.39c-5-6.5-8.66-14.04-12.91-21.12
	c-3.04-5.07-5.75-10.49-12.74-11.05c-1.73-0.14-2.43-1.44-2.17-3.02c0.29-1.75,1.76-1.99,3.25-1.99c10.63,0,21.25,0,31.88,0.03
	c1.4,0,3.04,0.03,3.33,1.85c0.34,2.16-1.13,2.86-2.97,3.06c-5.35,0.59-7.38,3.66-4.8,8.28C1425.33,717.33,1432.42,729,1440,741.91z"
	/>
<path class="st1" d="M1334.46,739.55c0.01,11.34,0.11,22.67-0.03,34.01c-0.09,7.19,2.16,12.02,10.33,12.01
	c1.93,0,4.03,0.2,3.73,2.98c-0.25,2.32-2.19,2.13-3.8,2.13c-11.81,0.04-23.62,0.05-35.44,0.04c-1.67,0-3.55-0.06-3.76-2.28
	c-0.27-2.82,1.93-2.88,3.82-2.86c8.25,0.11,10.3-4.82,10.27-11.96c-0.09-23.14-0.11-46.29,0.06-69.43c0.04-5.16-1.75-6.8-7-7.04
	c-13.9-0.63-25.34,2.57-31.33,16.58c-0.7,1.63-1.52,3.89-4.03,3c-2.45-0.87-1.71-2.99-1.3-4.84c0.05-0.23,0.09-0.46,0.15-0.69
	c1.57-6.17,1.68-13.35,5.08-18.26c4.31-6.22,11.59-0.36,17.57-0.56c20.06-0.66,40.16-0.37,60.24-0.19
	c4.6,0.04,10.07-4.15,13.34-0.46c2.77,3.12,2.65,8.81,3.77,13.37c0.62,2.52,1.15,5.06,1.71,7.59c0.34,1.51,0.18,2.86-1.45,3.52
	c-1.71,0.69-2.68-0.46-3.43-1.68c-1.36-2.21-2.46-4.59-3.9-6.74c-5.76-8.58-22.48-13.85-31.87-10.25c-3.36,1.29-2.68,4.1-2.7,6.57
	C1334.42,715.93,1334.46,727.74,1334.46,739.55z"/>
<path class="st1" d="M1305,650.48c-5.67,0.01-11.35,0.04-17.02-0.02c-1.81-0.02-4.12,0.43-4.49-2.22c-0.38-2.75,1.88-2.75,3.73-3.1
	c9.72-1.87,9.56-2.54,10.45-12.33c1.49-16.19-1.75-30.62-11.79-43.72c-5-6.52-8.67-14.06-12.9-21.16
	c-3.05-5.1-5.82-10.43-12.77-11.09c-1.57-0.15-2.57-1.27-2.24-2.98c0.34-1.79,1.85-1.96,3.29-1.96c10.64-0.02,21.27-0.01,31.91-0.02
	c1.47,0,3.1,0.08,3.41,1.78c0.36,2.04-1.03,2.89-2.93,3.14c-7.28,0.94-6.99,4.95-4.01,10.01c5.87,9.97,11.87,19.87,17.56,29.95
	c2.34,4.16,3.69,3.82,5.93-0.05c5.44-9.4,11.38-18.52,16.7-27.99c3.73-6.62,2.38-9.55-4.7-11.93c-1.43-0.48-2.86-0.74-2.86-2.49
	c0.01-2.33,1.82-2.41,3.53-2.42c8.27-0.02,16.55-0.04,24.82-0.01c1.64,0.01,3.5-0.02,3.59,2.36c0.07,1.77-1.16,2.46-2.67,2.68
	c-6.81,1-10.57,5.9-13.93,11.11c-7.67,11.91-15.07,24-22.81,35.87c-2.28,3.51-1.98,7.16-2,10.9c-0.03,6.62,0.1,13.23-0.03,19.85
	c-0.13,6.51,2.29,10.46,9.39,10.41c2.08-0.02,4.78-0.19,4.74,2.84c-0.05,3.17-2.85,2.51-4.86,2.53
	C1316.35,650.52,1310.67,650.48,1305,650.48z"/>
<path class="st1" d="M1513.32,630.03c7.42-20.78,14.34-39.57,20.8-58.52c2.99-8.77,1.42-11.39-7.08-14.74
	c-1.5-0.59-2.6-1.25-2.31-2.95c0.22-1.35,1.39-1.86,2.63-1.86c8.98-0.02,17.95-0.01,26.93,0.04c1.23,0.01,2.36,0.49,2.58,1.9
	c0.28,1.75-0.79,2.81-2.31,2.95c-8.79,0.81-11.26,7.74-13.77,14.37c-9.38,24.69-18.56,49.46-27.92,74.16
	c-0.87,2.3-0.98,5.9-4.04,6.09c-3.73,0.23-3.64-3.74-4.6-6.16c-9.79-24.54-19.43-49.13-29.2-73.67c-2.6-6.54-4.6-13.72-13.33-14.89
	c-1.22-0.16-2.09-1.17-1.99-2.53c0.13-1.79,1.48-2.28,2.99-2.28c11.57-0.01,23.15,0.01,34.72,0.06c1.23,0.01,2.4,0.51,2.62,1.88
	c0.28,1.76-0.93,2.35-2.39,2.9c-9.71,3.63-10.59,5.21-7.01,14.64C1497.82,590.31,1505.22,609.14,1513.32,630.03z"/>
<path class="st1" d="M879.68,770.45c7.6-21.48,14.7-40.95,21.32-60.58c2.36-7,0.11-10.47-6.8-12.71c-1.72-0.56-3.36-0.92-3.05-3.04
	c0.24-1.68,1.78-1.96,3.28-1.95c8.5,0.02,17,0.01,25.5,0.05c1.46,0.01,2.89,0.33,3.1,2.15c0.2,1.78-0.94,2.63-2.48,2.8
	c-8.03,0.88-10.63,7.11-13.01,13.35c-9.47,24.9-18.8,49.85-28.26,74.75c-0.94,2.49-0.92,6.45-4.45,6.42
	c-3.47-0.03-3.5-3.99-4.48-6.46c-9.86-24.75-19.59-49.55-29.41-74.31c-2.44-6.17-4.66-12.61-12.65-13.78
	c-1.69-0.25-2.38-1.57-2.04-3.14c0.28-1.28,1.37-1.77,2.7-1.77c11.57,0.02,23.14,0.02,34.71,0.05c1.25,0,2.39,0.46,2.57,1.88
	c0.22,1.71-0.86,2.35-2.36,2.92c-9.58,3.61-10.41,5.27-6.81,14.72C864.27,730.73,871.62,749.58,879.68,770.45z"/>
<path class="st1" d="M1242.49,790.69c-5.91-0.01-11.81,0.01-17.72-0.02c-1.63-0.01-3.55,0.19-3.85-2.08
	c-0.37-2.79,1.77-2.69,3.67-3.04c9.55-1.76,10.31-2.65,10.32-12.47c0.04-21.26,0.04-42.51-0.01-63.77
	c-0.02-9.29-1.06-10.47-10.07-11.95c-1.88-0.31-4.12-0.11-3.92-2.85c0.2-2.74,2.58-2.33,4.35-2.34c11.58-0.05,23.15-0.02,34.73-0.01
	c1.96,0,4.07,0.07,4.01,2.73c-0.05,2.22-2.02,2.15-3.65,2.46c-9.47,1.81-10.24,2.66-10.27,12.46c-0.06,21.26-0.05,42.51-0.01,63.77
	c0.02,9.13,1.09,10.35,10.08,12c1.82,0.33,4.21,0.07,3.84,2.87c-0.34,2.58-2.66,2.23-4.5,2.24
	C1253.83,790.72,1248.16,790.7,1242.49,790.69z"/>
<path class="st1" d="M792.53,790.72c-5.66,0-11.33,0.07-16.99-0.04c-1.73-0.03-4.14,0.51-4.36-2.29c-0.22-2.81,2.06-2.51,3.9-2.83
	c8.85-1.54,10.06-2.87,10.09-12.03c0.07-21.46-0.06-42.93,0.06-64.39c0.04-7.21-2.14-12.01-10.36-11.82
	c-1.96,0.05-4.04-0.35-3.69-3.04c0.28-2.21,2.27-2.1,3.88-2.1c11.8-0.02,23.6,0,35.39,0.02c1.67,0,3.55,0,3.69,2.27
	c0.16,2.69-1.89,2.93-3.87,2.87c-7.84-0.22-10.21,4.42-10.21,11.29c0.01,21.94,0.03,43.87-0.02,65.81
	c-0.02,7.07,2.84,11.25,10.42,11.18c2.02-0.02,4.01,0.36,3.66,3.05c-0.3,2.28-2.27,2-3.89,2.01c-5.9,0.03-11.8,0.01-17.7,0.01
	C792.53,790.7,792.53,790.71,792.53,790.72z"/>
<path class="st1" d="M608.97,1094.32c0-14.3-0.02-28.61,0.03-42.91c0.01-1.81-0.77-4.14,1.09-5.23c1.26-0.74,3.2-0.62,4.78-0.43
	c2.31,0.27,1.97,2.32,1.97,3.9c0.03,19.11,0.02,38.22,0,57.33c0,1.85,0.28,4-2.53,4.15c-2.87,0.15-5.41,0.06-7.37-2.87
	c-7.09-10.58-14.44-20.99-21.71-31.45c-3.47-4.99-6.98-9.94-10.47-14.93c-2.64,1.54-1.67,3.62-1.67,5.33
	c-0.06,12.27,0.1,24.54-0.1,36.8c-0.04,2.74,2.09,7.04-3.79,7.2c-5.66,0.15-4.28-3.83-4.3-6.84c-0.08-17.46-0.09-34.92,0.03-52.38
	c0.02-2.27-1.42-5.53,2.52-6.35c3.34-0.69,5.77,0.38,7.78,3.35c8.49,12.49,17.16,24.84,25.78,37.24c1.98,2.86,4.01,5.68,6.02,8.52
	C607.68,1094.62,608.32,1094.47,608.97,1094.32z"/>
<path class="st1" d="M1064,1094.35c0-14.29-0.02-28.57,0.02-42.86c0.01-1.83-0.69-4.17,1.04-5.3c1.2-0.78,3.17-0.59,4.78-0.5
	c2.35,0.14,2.18,2.1,2.18,3.72c0.02,19.36,0.01,38.72,0.01,58.08c0,1.73-0.1,3.36-2.38,3.59c-3.2,0.32-5.75-0.09-7.85-3.23
	c-7.34-10.99-14.87-21.86-22.66-32.54c-2.92-4-4.78-11.67-9.62-10.57c-3.28,0.74-1.16,8.95-1.29,13.8
	c-0.24,8.97-0.07,17.94-0.09,26.91c-0.01,2.76,0.72,5.72-3.89,5.8c-4.97,0.09-4.34-3.05-4.34-6.13c0.01-17.94-0.03-35.89,0.06-53.83
	c0.01-2.11-1.18-5.13,2.45-5.64c2.84-0.4,5.45-0.31,7.43,2.65c5.77,8.63,11.81,17.09,17.75,25.61c4.84,6.95,9.7,13.89,14.55,20.84
	C1062.76,1094.62,1063.38,1094.48,1064,1094.35z"/>
<path class="st1" d="M951.26,957.04c0,14.4-0.04,28.81,0.03,43.21c0.01,3.25,0.31,6.09-4.51,5.93c-4.66-0.15-3.79-3.22-3.8-5.91
	c-0.04-17.95-0.06-35.91,0.04-53.86c0.01-2.09-1.29-5.13,2.22-5.82c3.14-0.62,5.8-0.12,7.93,3.02
	c9.28,13.68,18.78,27.21,28.28,40.75c1.29,1.84,2.08,4.21,5.52,5.7c0-11.7,0-22.87,0-34.04c0-3.78,0.11-7.56-0.03-11.34
	c-0.11-2.95,0.92-4.32,4.05-4.29c2.97,0.03,4.21,1.06,4.2,4.15c-0.08,19.14-0.03,38.27-0.01,57.41c0,1.97,0.03,3.79-2.67,4.08
	c-3.27,0.35-5.68-0.26-7.77-3.36c-8.84-13.12-17.99-26.04-27.03-39.03c-1.69-2.43-3.39-4.85-5.09-7.28
	C952.18,956.59,951.72,956.81,951.26,957.04z"/>
<path class="st1" d="M1233.48,1061.96c0,14.56-0.03,29.13,0.03,43.69c0.01,3.01,0.22,5.56-4.13,5.61c-4.36,0.05-4.23-2.48-4.22-5.51
	c0.05-17.93-0.02-35.86,0.09-53.78c0.01-2.27-1.5-5.59,2.45-6.34c3.21-0.61,5.68,0.22,7.77,3.3c10.61,15.59,21.49,30.99,32.89,47.35
	c1.54-6.56,0.7-12.3,0.79-17.95c0.16-9.43,0.1-18.87,0.01-28.31c-0.02-2.74,0.51-4.48,3.78-4.56c3.42-0.08,4.48,1.34,4.46,4.64
	c-0.1,18.87-0.05,37.74-0.07,56.61c0,1.83,0.45,4.03-2.29,4.36c-3.13,0.38-5.8,0.15-7.94-3.02c-9.25-13.67-18.77-27.16-28.2-40.71
	c-1.33-1.92-2.71-3.8-4.07-5.71C1234.4,1061.75,1233.94,1061.86,1233.48,1061.96z"/>
<path class="st1" d="M1342.56,1077.69c0-8.96,0.14-17.92-0.07-26.88c-0.09-3.85,0.94-5.56,5.11-5.38c6.83,0.3,13.7-0.2,20.51,0.22
	c9.38,0.58,15.73,5.55,18.05,13.39c2.75,9.28,0.43,17.69-7.39,23.14c-3.4,2.37-2.71,4.12-1.21,6.78c3.01,5.33,6.11,10.63,8.76,16.14
	c0.81,1.69,4.39,4.15,1.06,5.69c-2.54,1.17-6.57,1.71-8.66-2.25c-3.18-6.05-6.43-12.06-9.7-18.06c-2.2-4.04-12.88-6.8-16.71-4.36
	c-1.68,1.08-1.44,2.83-1.45,4.45c-0.03,5.42-0.11,10.85,0.02,16.27c0.07,2.89-0.79,4.3-3.95,4.39c-3.43,0.1-4.5-1.23-4.44-4.56
	C1342.66,1097.03,1342.56,1087.36,1342.56,1077.69z M1361.44,1052.96c-12.22,0.11-10.5-1.2-10.57,10.48
	c-0.09,15.43,3.19,17.83,18.95,14.28c5.49-1.24,8.54-4.52,9.05-10.24C1379.78,1057.29,1374.75,1053.05,1361.44,1052.96z"/>
<path class="st1" d="M1050.27,973.09c13.91-0.01,15.67,2.25,11.62,15.85c-3.16,10.62-10.77,16.58-21.5,17.89
	c-11.64,1.43-21.85-2.09-27.96-12.61c-7.96-13.71-7.7-28.08-0.02-41.8c5.3-9.47,14.32-13.48,25.08-12.84
	c10.44,0.62,18.42,5.51,23.04,15.11c0.89,1.86,3.29,4.64,0.19,6.08c-2.25,1.04-5.21,1.3-7.43-1.84
	c-7.62-10.77-13.84-13.42-23.45-10.62c-8.67,2.53-14.28,11.15-14.79,22.72c-0.27,6.21,0.24,12.3,3.41,17.81
	c4.48,7.76,11.37,11,20.19,10.18c7.7-0.72,13.31-5.39,15.54-12.47c1.29-4.07,0.76-6.44-4.24-6.05c-2.58,0.2-5.19-0.03-7.78,0.06
	c-2.75,0.1-4.4-0.52-4.36-3.87c0.05-3.56,2.15-3.63,4.67-3.59C1045.08,973.12,1047.68,973.09,1050.27,973.09z"/>
<path class="st1" d="M1439.37,1078.16c0.47,0,0.94,0,1.42,0c12.15,0.02,13.42,1.68,10.68,13.93c-2.52,11.28-11.2,18.82-22.88,19.89
	c-13.56,1.24-24.79-4.99-29.54-17.18c-4.66-11.96-4.51-24.12,1.44-35.66c5.27-10.23,14.24-14.82,25.62-14.38
	c10.81,0.42,18.9,5.45,23.58,15.34c0.84,1.78,3.46,4.53,0.02,5.88c-2.32,0.91-5.3,1.17-7.48-1.95
	c-7.45-10.66-13.32-13.29-22.69-10.78c-8.8,2.36-14.35,10.06-15.47,21.49c-1.64,16.73,6.52,28.72,20.12,29.54
	c9.03,0.54,16.94-4.71,19.11-12.62c1.1-4.01,0.44-6.46-4.49-6.07c-2.82,0.22-5.66-0.01-8.5,0.04c-2.82,0.05-3.62-1.44-3.55-4.02
	c0.06-2.37,1.06-3.46,3.41-3.43c3.07,0.03,6.14,0.01,9.21,0.01C1439.37,1078.17,1439.37,1078.17,1439.37,1078.16z"/>
<path class="st1" d="M811.55,1110.33c-6.29,2.09-9.91,0.53-12.33-5.1c-2.32-5.39-5.6-10.35-8.25-15.6c-1.3-2.56-2.89-3.77-5.94-3.95
	c-12.02-0.67-12.01-0.8-11.99,11.4c0,3.3-0.12,6.6,0.02,9.9c0.12,2.9-0.8,4.39-3.99,4.27c-2.78-0.1-4.3-0.73-4.29-4.01
	c0.11-19.09,0.08-38.18-0.01-57.27c-0.02-3.32,1.19-4.62,4.57-4.52c6.83,0.21,13.69-0.15,20.51,0.21
	c9.88,0.52,16.11,5.27,18.6,13.55c2.75,9.15,0.43,17.18-7.39,23.11c-2.75,2.08-3,3.66-1.41,6.33c2.05,3.44,3.91,6.99,5.83,10.51
	C807.39,1102.66,809.29,1106.17,811.55,1110.33z M772.94,1065.36c-0.01,13.03-0.01,13.03,13.11,12.79c0.94-0.02,1.88-0.02,2.82-0.09
	c9.69-0.64,14.42-7.02,11.93-16.37c-2.08-7.79-8.34-8.6-15.02-8.73C772.95,1052.74,772.95,1052.7,772.94,1065.36z"/>
<path class="st1" d="M541.79,973.19c0-8.96,0.25-17.94-0.09-26.89c-0.18-4.79,1.59-6.17,6.11-5.94c6.12,0.32,12.27-0.04,18.4,0.16
	c9.92,0.32,16.6,4.92,19.16,12.87c3.01,9.37,0.65,17.88-7.32,23.79c-2.8,2.07-3,3.49-1.37,6.25c3.22,5.49,6.25,11.1,9.1,16.78
	c0.85,1.68,4.09,4.06,0.81,5.52c-2.39,1.07-6.19,1.61-8.15-1.93c-3.09-5.57-6.07-11.19-9.12-16.78c-3.17-5.81-11.27-8.61-17.26-6.19
	c-2.09,0.84-1.94,2.41-1.95,4.01c-0.05,4.72,0.19,9.45-0.11,14.15c-0.17,2.75,2.12,7-3.82,7.09c-6.29,0.1-4.24-4.42-4.32-7.44
	C541.65,990.17,541.79,981.68,541.79,973.19z M562.55,973.08c0.74-0.04,3.61,0.06,6.37-0.41c4.51-0.76,7.97-3.22,8.99-7.88
	c1.09-5.01,1.03-10.27-3.4-13.64c-6.75-5.12-15.08-4.37-22.46-2.83c-4.34,0.91-1.36,7.01-1.88,10.72c-0.45,3.23,0.04,6.59-0.11,9.88
	c-0.14,2.98,0.95,4.39,4.05,4.19C556.22,972.97,558.34,973.08,562.55,973.08z"/>
<path class="st1" d="M1008.09,1079.11c-0.08,20.92-13.25,34.48-31.93,32.87c-0.94-0.08-1.88-0.18-2.81-0.35
	c-16.28-3.01-26.19-20.75-22.68-40.56c3.29-18.61,16.7-28.85,33.89-25.89C999.1,1047.67,1008.16,1060.74,1008.09,1079.11z
	 M999.91,1078.28c0.14-0.01,0.27-0.02,0.41-0.04c-0.45-3.25-0.57-6.59-1.41-9.73c-2.69-10.02-10.31-16.12-19.73-16.13
	c-9.4-0.01-16.85,6.1-19.83,16.08c-1.31,4.38-1.24,8.84-1.02,13.3c0.66,13.37,8.91,22.47,20.44,22.71
	c11.61,0.25,20.09-8.54,21.14-21.96C1000.01,1081.1,999.91,1079.69,999.91,1078.28z"/>
<path class="st1" d="M642.56,1007.26c-12.02,0-20.34-4.56-23.16-12.6c-0.61-1.73-2.65-4.45,0.36-5.41c2.28-0.72,5.1-1.55,7.24,2.02
	c5.17,8.65,15.7,11,24.46,6.12c3.53-1.96,5.9-4.78,6.06-8.92c0.17-4.39-2.49-7.08-6.28-8.48c-5.52-2.03-11.22-3.59-16.77-5.54
	c-10.38-3.65-15.22-9.54-14.63-17.52c0.65-8.74,7.62-15.33,18.06-17.07c10.53-1.75,21.38,2.68,25,10.58
	c0.9,1.95,3.65,4.99-0.18,6.53c-2.32,0.94-4.94,1.12-6.91-2.53c-4.06-7.53-14.74-9.79-22.26-5.45c-3.21,1.85-5.52,4.41-5.63,8.39
	c-0.12,4.12,2.21,6.87,5.66,8.18c6.15,2.35,12.6,3.92,18.77,6.22c10.37,3.85,14.71,11.24,12.6,20.72
	c-1.09,4.89-3.91,8.51-8.14,11.06C652.23,1006.33,647.24,1007.49,642.56,1007.26z"/>
<path class="st1" d="M872.65,971.56c7.84-8.62,15.69-17.23,23.53-25.85c5.1-5.6,5.1-5.6,14.79-4.61
	c-7.68,8.3-14.4,16.38-22.01,23.51c-4.68,4.39-3.95,7.22-0.37,11.59c7.56,9.26,14.62,18.93,22.22,28.86
	c-5.76,2.09-9.47,1.22-12.69-3.49c-4.92-7.2-10.69-13.83-15.54-21.07c-3.02-4.5-4.6-3.27-7.77-0.14
	c-6.09,6.02-3.12,13.33-3.78,20.11c-0.27,2.76,0.67,5.89-3.98,5.66c-2.84-0.14-4.3-0.79-4.28-4.02c0.1-19.35,0.08-38.7,0.02-58.06
	c-0.01-2.82,1.26-3.61,3.87-3.67c2.91-0.07,4.37,0.76,4.33,3.95c-0.11,8.85-0.04,17.7-0.04,26.55
	C871.52,971.12,872.08,971.34,872.65,971.56z"/>
<path class="st1" d="M652.11,1112.37c-11.16,0.06-19.83-4.62-22.6-12.51c-0.59-1.69-2.74-4.34,0.22-5.48
	c2.37-0.91,5.17-1.54,7.29,1.87c5.25,8.44,14.18,10.95,23.1,7.02c4.44-1.95,7.48-5.06,7.45-10.17c-0.03-4.74-3.34-7.13-7.28-8.54
	c-5.33-1.89-10.83-3.29-16.16-5.16c-10.1-3.54-14.94-9.79-14.12-17.83c0.88-8.57,7.75-14.95,17.74-16.47
	c11.42-1.74,21.91,2.64,25.42,10.91c0.77,1.83,3.24,4.67-0.16,5.96c-2.32,0.88-5.08,1.09-7.11-2.4c-4.22-7.25-13.07-9.5-20.96-6.12
	c-3.96,1.7-6.67,4.47-6.93,8.98c-0.26,4.45,2.45,7.08,6.17,8.52c4.38,1.7,8.92,2.98,13.43,4.32c13.59,4.06,19.26,10.69,17.69,20.81
	C673.74,1106.18,665.03,1112.3,652.11,1112.37z"/>
<path class="st1" d="M1133.87,1112.35c-11.33,0.05-19.68-4.51-22.65-12.5c-0.69-1.86-2.36-4.51,0.4-5.46
	c2.26-0.78,5.11-1.67,7.23,1.92c5.18,8.73,15.68,11.16,24.39,6.26c3.79-2.13,6.13-5.19,5.97-9.68c-0.16-4.39-2.98-6.86-6.76-8.19
	c-5.56-1.96-11.29-3.46-16.84-5.42c-10.17-3.6-14.71-9.65-13.81-18c0.89-8.22,7.69-14.59,17.28-16.17
	c11.1-1.83,21.19,2.06,25.31,9.95c1.12,2.14,3.42,5.14,0.49,6.81c-2.48,1.41-5.39,0.91-7.49-2.72c-4.41-7.64-16.66-9.46-23.64-4.13
	c-6.27,4.79-5.03,12.64,2.68,16.26c6.85,3.21,14.67,3.64,21.39,7.29c12.2,6.61,12.73,22.68,0.94,29.99
	C1144.23,1111.36,1139.19,1112.46,1133.87,1112.35z"/>
<path class="st1" d="M725.51,1005.27c-6.21,1.86-10.08,0.67-13.29-4.31c-3.95-6.13-8.56-11.84-13.11-17.56
	c-1.78-2.24-3.22-6.97-6.06-5.71c-3.78,1.68-7.38,5.14-7.35,10.34c0.02,4.24-0.05,8.49,0.04,12.73c0.06,3.08,0,5.51-4.34,5.37
	c-3.82-0.12-4.01-2.11-4-5.01c0.06-18.63,0.07-37.26,0.01-55.88c-0.01-2.97,0.36-4.89,4.14-4.86c3.69,0.03,4.25,1.84,4.22,4.86
	c-0.1,8.48-0.03,16.96-0.03,25.75c3.4-0.14,4.5-2.77,6.11-4.51c6.24-6.75,12.63-13.4,18.44-20.51c3.87-4.74,8.13-6.76,15.17-4.75
	c-7.28,7.87-13.94,15.67-21.28,22.77c-4.56,4.41-5.27,7.42-0.81,12.59C711.13,985.6,717.97,995.4,725.51,1005.27z"/>
<path class="st1" d="M869.83,1111.09c-4.28,0.67-4.69-2.5-5.7-5.11c-5.06-13.16-5.07-13.27-18.97-13.15
	c-14.59,0.13-11.01-2.05-15.96,11.35c-0.65,1.77-1.16,3.63-2.09,5.24c-1.7,2.94-4.77,2.07-7.02,1.44c-3.07-0.85-0.7-3.25-0.21-4.6
	c6.81-18.83,13.82-37.59,20.69-56.41c0.97-2.67,1.98-4.42,5.34-4.44c3.42-0.02,5.08,1.27,6.2,4.38
	c6.81,18.83,13.72,37.63,20.69,56.4C874.03,1109.55,874.4,1111.94,869.83,1111.09z M846.37,1056.16
	c-2.25,6.05-3.91,10.32-5.42,14.64c-5.59,15.93-5.21,16.34,11.74,14.52c2.67-0.29,3.96-0.69,2.8-3.77
	C852.54,1073.71,849.81,1065.8,846.37,1056.16z"/>
<path class="st1" d="M1291.76,1078.42c-0.01-8.96,0.21-17.93-0.1-26.88c-0.16-4.52,1.08-6.3,5.87-6.14
	c9.42,0.32,18.87,0.07,28.3,0.11c2.73,0.01,5.87-0.7,5.71,3.95c-0.14,4.24-3.02,3.4-5.48,3.42c-7.08,0.06-14.15,0.02-21.23,0.1
	c-1.76,0.02-4.36-0.58-4.5,2.08c-0.31,5.87-0.32,11.78-0.12,17.66c0.1,2.95,2.84,1.92,4.46,1.96c6.6,0.17,13.21,0.1,19.81,0.13
	c2.38,0.01,4.83-0.3,4.98,3.31c0.16,3.95-2.35,3.92-5.11,3.89c-5.66-0.05-11.32-0.01-16.98-0.01c-0.71,0-1.43,0.09-2.12-0.03
	c-5.67-0.92-6.26,3.16-5,6.48c1.93,5.05-6.01,13.67,4.74,15.18c6.94,0.97,14.13,0.15,21.2,0.18c2.73,0.01,5.87-0.78,5.8,3.86
	c-0.06,4.21-2.92,3.52-5.41,3.53c-9.91,0.03-19.82-0.17-29.72,0.06c-4.04,0.09-5.29-1.25-5.18-5.25
	C1291.94,1096.82,1291.77,1087.62,1291.76,1078.42z"/>
<path class="st1" d="M849.34,1005.98c-3.83,0.87-4.63-1.89-5.68-4.67c-5.11-13.62-5.15-13.69-19.32-13.58
	c-14.25,0.11-10.8-1.92-15.55,10.93c-0.57,1.55-1.26,3.06-1.73,4.64c-1.2,4.04-4.56,3.1-7.02,2.53c-3.57-0.82-1.13-3.4-0.55-5
	c6.73-18.63,13.6-37.2,20.36-55.82c1.05-2.91,2.31-4.7,5.94-4.71c3.67-0.01,4.83,1.86,5.88,4.75c6.83,18.84,13.71,37.66,20.73,56.43
	C853.64,1004.85,853.37,1006.46,849.34,1005.98z M825.77,951.04c-2.11,5.76-3.8,10.35-5.46,14.94c-5.56,15.44-5.07,15.94,11.44,14.3
	c3.46-0.34,3.92-1.64,2.93-4.42C831.86,967.98,829.03,960.1,825.77,951.04z"/>
<path class="st1" d="M687.48,1078.01c0.01-9.18,0.14-18.37-0.06-27.55c-0.08-3.6,1-5.12,4.76-5c6.83,0.23,13.68-0.2,20.49,0.22
	c11.91,0.74,19.05,8.44,19.27,20.17c0.23,12.3-6.55,20.14-18.74,21.33c-3.97,0.39-8.02,0.5-12,0.22c-4.49-0.32-5.76,1.57-5.48,5.74
	c0.28,4.22-0.06,8.48,0.09,12.71c0.11,3.19-0.17,5.37-4.37,5.37c-4.6,0-3.97-2.86-3.97-5.67c0.01-4.71,0-9.42,0-14.13
	C687.47,1086.96,687.47,1082.48,687.48,1078.01z M695.79,1066.16c0,14.87,0,14.87,14.09,13.97c9.2-0.58,14.02-5.14,14.18-13.4
	c0.16-8.32-4.49-13.06-13.63-13.9C695.79,1051.48,695.79,1051.48,695.79,1066.16z"/>
<path class="st1" d="M1161.17,1046.39c5.85-1.84,9.32-0.82,12.08,4.4c4.47,8.45,9.73,16.48,15.23,25.64
	c5.43-9.07,10.21-17.08,15.02-25.08c0.97-1.61,1.77-3.42,3.08-4.7c2.11-2.05,5.29-1.76,7.29-0.66c2.93,1.61-0.16,3.6-0.99,5.11
	c-2.5,4.53-5.05,9.09-8.13,13.24c-9.1,12.29-14.82,25.45-12.32,41.2c0.42,2.63,0.89,5.69-3.8,5.74c-4.96,0.05-4.68-3.04-4.26-6.08
	c2.07-15.09-2.49-28.07-11.58-40.02C1168.42,1059.45,1165.15,1052.92,1161.17,1046.39z"/>
<path class="st1" d="M1454.61,1046.39c6.39-2.08,9.7-0.2,12.36,4.8c4.4,8.24,9.48,16.12,14.94,25.27
	c5.37-8.95,10.15-16.91,14.92-24.86c0.85-1.41,1.56-2.94,2.58-4.21c2.34-2.93,5.99-2.68,8.32-1.21c2.23,1.41-0.64,3.64-1.57,5.28
	c-2.31,4.1-4.62,8.25-7.43,12.01c-9.45,12.63-15.39,26.21-12.75,42.45c0.52,3.18-0.1,5.42-4.3,5.32c-3.85-0.09-4.36-2.21-3.87-5.05
	c2.95-17.11-4.08-31.06-13.64-44.35C1460.77,1057.11,1458.01,1051.93,1454.61,1046.39z"/>
<path class="st1" d="M891.6,1082.02c0-7.31-0.41-14.64,0.12-21.91c0.45-6.15-1.94-7.93-7.62-7.25c-3.02,0.36-6.12,0.02-9.19,0.07
	c-2.43,0.04-4.13-0.54-4.1-3.48c0.02-2.55,0.83-3.96,3.66-3.95c14.15,0.06,28.29,0.05,42.44,0.04c2.39,0,3.26,1.14,3.33,3.48
	c0.07,2.64-0.79,3.96-3.58,3.89c-3.77-0.09-7.56,0.21-11.31-0.06c-4.32-0.31-5.75,1.37-5.7,5.67c0.19,15.32,0.11,30.64,0.03,45.96
	c-0.02,2.99,1.37,6.92-4.34,6.75c-5.42-0.16-3.59-3.98-3.66-6.58C891.47,1097.11,891.6,1089.56,891.6,1082.02z"/>
<path class="st1" d="M780.86,977.17c0,8.03-0.07,16.07,0.04,24.1c0.04,3.02-0.5,4.86-4.19,4.9c-3.76,0.04-4.18-1.83-4.16-4.85
	c0.09-15.59-0.14-31.19,0.17-46.78c0.1-5.16-1.16-7.46-6.67-6.77c-3.49,0.43-7.08,0.04-10.63,0.08c-2.36,0.02-3.42-1.11-3.46-3.44
	c-0.04-2.52,0.76-3.99,3.63-3.98c13.95,0.06,27.89,0.06,41.84,0c2.71-0.01,3.76,1.05,3.8,3.76c0.04,2.83-1.22,3.82-3.84,3.65
	c-0.71-0.05-1.42-0.01-2.13,0c-14.43,0.27-14.43,0.27-14.43,14.44c0,4.96,0,9.92,0,14.89C780.85,977.17,780.86,977.17,780.86,977.17
	z"/>
<path class="st1" d="M929.78,1077.82c0-9.17,0.07-18.35-0.04-27.52c-0.03-3.01,0.45-4.87,4.14-4.87c3.72,0,4.17,1.92,4.16,4.91
	c-0.06,18.82-0.08,37.63,0.05,56.45c0.02,3.48-1.35,4.45-4.59,4.44c-3.35-0.01-3.78-1.75-3.75-4.47
	C929.83,1097.11,929.78,1087.47,929.78,1077.82z"/>
<path class="st1" d="M606.97,974.1c0,9.18-0.04,18.37,0.03,27.55c0.02,2.66-0.3,4.53-3.73,4.5c-3.14-0.03-4.71-0.75-4.68-4.34
	c0.13-18.84,0.1-37.68,0.04-56.52c-0.01-2.98,0.44-4.9,4.16-4.94c3.66-0.03,4.26,1.7,4.23,4.78
	C606.9,954.79,606.97,964.45,606.97,974.1z"/>
<path class="st1" d="M550.08,1078.32c0,9.18-0.06,18.35,0.04,27.53c0.03,3.08,0.06,5.52-4.25,5.42c-3.73-0.09-4.11-2-4.1-4.96
	c0.06-18.59,0.06-37.17,0.01-55.76c-0.01-2.84,0.13-5,3.96-5.11c4.21-0.12,4.41,2.21,4.38,5.36
	C550.02,1059.96,550.08,1069.14,550.08,1078.32z"/>
<path class="st1" d="M920.08,973.35c0.01-9.18,0.04-18.36-0.02-27.54c-0.02-3.02-0.1-5.56,4.26-5.44c3.75,0.1,4.11,2.06,4.1,4.98
	c-0.05,18.59-0.04,37.19,0,55.78c0.01,2.83-0.15,4.94-4,5.04c-4.22,0.11-4.44-2.08-4.4-5.29
	C920.15,991.7,920.07,982.52,920.08,973.35z"/>
<path class="st1" d="M750.03,1078.39c0,9.18-0.08,18.36,0.04,27.54c0.04,3.16-0.07,5.47-4.33,5.34c-3.76-0.11-4.03-2.04-4.02-4.99
	c0.07-18.59,0.06-37.19-0.01-55.78c-0.01-2.92,0.28-4.93,4.04-5.04c4.3-0.13,4.33,2.32,4.3,5.4
	C749.98,1060.03,750.03,1069.21,750.03,1078.39z"/>
<path class="st1" d="M738.64,969.37c3.28,0,6.55,0.08,9.83-0.02c2.76-0.09,4.37,0.61,4.33,3.87c-0.04,2.91-1.5,3.6-3.93,3.59
	c-7.02-0.01-14.04-0.05-21.06,0.03c-2.49,0.03-3.95-0.58-3.96-3.49c-0.01-3.1,1.33-4.1,4.27-3.96c3.5,0.17,7.02,0.04,10.53,0.04
	C738.64,969.41,738.64,969.39,738.64,969.37z"/>
<path class="st2" d="M198.47,836.95c-0.29,0.56-0.59,1.15-1.2,0.32c-0.04-0.05,0.48-0.5,0.74-0.77
	C198.01,836.49,198.47,836.95,198.47,836.95z"/>
<path class="st2" d="M993.9,578.2c0-4.94,0.28-9.91-0.07-14.82c-0.37-5.11,1.85-6.78,6.61-6.36c2.57,0.22,5.18-0.04,7.76,0.13
	c11.6,0.74,18.04,6.99,19.26,18.57c1.11,10.55-4.61,18.97-14.84,21.86c-15.54,4.38-18.72,2.05-18.72-13.72
	C993.9,581.96,993.9,580.08,993.9,578.2z"/>
<path class="st2" d="M1061.87,718.29c0-3.53,0-7.05,0-10.58c-0.01-10.56-0.01-10.56,10.86-10.41c15,0.21,22.57,7.23,22.55,20.92
	c-0.02,12.73-8.24,20.26-22.54,20.64c-1.88,0.05-3.78-0.16-5.64,0.04c-3.91,0.42-5.53-1.02-5.31-5.11
	C1062.08,728.64,1061.87,723.46,1061.87,718.29z"/>
<path class="st2" d="M1102.75,620.37c0-1.42-0.36-2.95,0.06-4.22c1.58-4.81-4.05-13.2,3.5-14.3c14.74-2.16,26.41,0.01,30.36,11.5
	c2.62,7.61,1.93,15.41-1.86,22.64c-4.52,8.64-18.02,12.56-26.62,7.93c-4.34-2.34-5.26-6.39-5.34-10.81
	c-0.08-4.24-0.02-8.49-0.02-12.73C1102.81,620.37,1102.78,620.37,1102.75,620.37z"/>
<path class="st2" d="M1102.74,576.6c0-2.13-0.48-4.39,0.1-6.35c1.28-4.38-4.07-11.37,3.81-13.01c12.6-2.62,22.86,1.55,25.39,9.93
	c2.4,7.94,2.26,15.92-3.56,22.75c-6.21,7.29-14.81,6.24-23.02,6.34c-2.69,0.03-2.68-2.15-2.69-4.07c-0.03-5.2-0.01-10.39-0.01-15.59
	C1102.76,576.6,1102.75,576.6,1102.74,576.6z"/>
<path class="st2" d="M897.66,568.73c5.55,14.43,10.41,27.08,15.76,40.97c-9.6,0-18.35-0.02-27.1,0.01c-3.44,0.01-3.11-1.9-2.27-4.17
	C888.34,593.92,892.64,582.3,897.66,568.73z"/>
<path class="st2" d="M691.02,568.75c5.25,13.56,9.82,25.36,14.4,37.15c1.08,2.79,0.11,3.86-2.8,3.83
	c-7.52-0.07-15.05-0.11-22.57,0.03c-3.63,0.07-3.7-1.38-2.61-4.25C681.83,593.91,686.06,582.23,691.02,568.75z"/>
<path class="st2" d="M1206.99,568.79c5.16,13.44,9.58,25.24,14.24,36.95c1.33,3.35,0.28,4.08-2.89,4.03
	c-7.29-0.11-14.58-0.02-21.87-0.06c-2.13-0.01-4.72,0.19-3.44-3.29C1197.44,594.38,1201.94,582.37,1206.99,568.79z"/>
<path class="st2" d="M1361.44,1052.96c13.31,0.1,18.34,4.34,17.43,14.53c-0.51,5.71-3.55,9-9.05,10.24
	c-15.75,3.55-19.03,1.15-18.95-14.28C1350.94,1051.75,1349.22,1053.07,1361.44,1052.96z"/>
<path class="st2" d="M772.94,1065.36c0.01-12.66,0.01-12.62,12.83-12.39c6.68,0.12,12.94,0.93,15.02,8.73
	c2.49,9.35-2.23,15.73-11.93,16.37c-0.94,0.06-1.88,0.07-2.82,0.09C772.92,1078.38,772.92,1078.38,772.94,1065.36z"/>
<path class="st2" d="M562.55,973.08c-4.2,0-6.33-0.11-8.44,0.03c-3.09,0.2-4.18-1.21-4.05-4.19c0.15-3.29-0.34-6.65,0.11-9.88
	c0.52-3.71-2.46-9.81,1.88-10.72c7.38-1.54,15.71-2.29,22.46,2.83c4.44,3.36,4.5,8.63,3.4,13.64c-1.02,4.66-4.48,7.12-8.99,7.88
	C566.16,973.13,563.29,973.03,562.55,973.08z"/>
<path class="st2" d="M999.91,1078.28c0,1.41,0.1,2.83-0.01,4.23c-1.05,13.42-9.53,22.2-21.14,21.96
	c-11.53-0.24-19.77-9.34-20.44-22.71c-0.22-4.46-0.28-8.91,1.02-13.3c2.98-9.98,10.43-16.09,19.83-16.08
	c9.42,0.01,17.05,6.11,19.73,16.13c0.84,3.14,0.96,6.48,1.41,9.73C1000.18,1078.25,1000.05,1078.26,999.91,1078.28z"/>
<path class="st2" d="M846.37,1056.16c3.44,9.64,6.17,17.55,9.12,25.39c1.16,3.08-0.13,3.49-2.8,3.77
	c-16.95,1.82-17.33,1.41-11.74-14.52C842.46,1066.48,844.12,1062.21,846.37,1056.16z"/>
<path class="st2" d="M825.77,951.04c3.26,9.07,6.09,16.95,8.91,24.83c0.99,2.77,0.53,4.07-2.93,4.42c-16.51,1.64-17,1.13-11.44-14.3
	C821.97,961.38,823.67,956.8,825.77,951.04z"/>
<path class="st2" d="M695.79,1066.16c0-14.68,0-14.68,14.64-13.33c9.14,0.84,13.79,5.58,13.63,13.9
	c-0.16,8.26-4.98,12.82-14.18,13.4C695.78,1081.03,695.78,1081.03,695.79,1066.16z"/>
</svg>
